<svg width="357" height="68" viewBox="0 0 357 68" fill="none" xmlns="http://www.w3.org/2000/svg">
<g clip-path="url(#clip0_1081_30196)">
<g filter="url(#filter0_d_1081_30196)">
<rect x="13" width="332" height="95.4017" rx="5.62712" fill="white"/>
<circle cx="23.1868" cy="13.065" r="2.03741" fill="#61A5FB"/>
<path d="M32.2425 15.5649L30.6238 11.6501V15.5649H29.9036V10.4449H30.8662L32.5848 14.6023L34.2962 10.4449H35.266V15.5649H34.5387V11.6429L32.9128 15.5649H32.2425ZM37.8697 15.6363C36.7787 15.6363 36.0442 14.8447 36.0442 13.6539C36.0442 12.5343 36.8072 11.7142 37.8483 11.7142C38.975 11.7142 39.7237 12.627 39.5954 13.8535H36.7787C36.8357 14.6237 37.2208 15.0729 37.8554 15.0729C38.3903 15.0729 38.7611 14.7805 38.8823 14.2885H39.5954C39.41 15.13 38.7611 15.6363 37.8697 15.6363ZM37.8341 12.2562C37.2564 12.2562 36.8642 12.6698 36.7858 13.3757H38.8324C38.7967 12.6769 38.4188 12.2562 37.8341 12.2562ZM40.0198 13.6752C40.0198 12.5272 40.6758 11.7142 41.6956 11.7142C42.2019 11.7142 42.644 11.971 42.9078 12.4345V10.4449H43.628V15.5649H42.9577V14.8875C42.6868 15.3653 42.2304 15.6363 41.6956 15.6363C40.6758 15.6363 40.0198 14.8091 40.0198 13.6752ZM40.7685 13.6752C40.7685 14.5167 41.2107 14.9945 41.8382 14.9945C42.4514 14.9945 42.9078 14.4953 42.9078 13.661C42.9078 12.8124 42.4372 12.3489 41.8382 12.3489C41.2107 12.3489 40.7685 12.8195 40.7685 13.6752ZM45.5056 10.9085C45.5056 11.1794 45.2917 11.3862 44.985 11.3862C44.6784 11.3862 44.4574 11.1794 44.4574 10.9085C44.4574 10.6303 44.6784 10.4307 44.985 10.4307C45.2917 10.4307 45.5056 10.6303 45.5056 10.9085ZM45.3487 15.5649H44.6285V11.7856H45.3487V15.5649ZM47.8382 15.6434C46.8042 15.6434 46.0769 14.8305 46.0769 13.6752C46.0769 12.5343 46.8185 11.7142 47.8382 11.7142C48.7724 11.7142 49.4498 12.3346 49.5853 13.3187H48.8294C48.751 12.7126 48.373 12.3489 47.8453 12.3489C47.2249 12.3489 46.8185 12.8766 46.8185 13.6752C46.8185 14.481 47.2249 15.0016 47.8453 15.0016C48.3802 15.0016 48.751 14.6451 48.8365 14.0318H49.5853C49.4569 15.0301 48.7866 15.6434 47.8382 15.6434ZM52.5986 15.5649V14.9802C52.3632 15.4009 51.9425 15.6363 51.3863 15.6363C50.6019 15.6363 50.0885 15.187 50.0885 14.4953C50.0885 13.7537 50.6803 13.3686 51.807 13.3686C52.0281 13.3686 52.2064 13.3757 52.513 13.4114V13.1333C52.513 12.5913 52.2206 12.2847 51.7214 12.2847C51.1938 12.2847 50.8729 12.5985 50.8515 13.1262H50.1954C50.2311 12.2776 50.8372 11.7142 51.7214 11.7142C52.6556 11.7142 53.1975 12.2419 53.1975 13.1404V15.5649H52.5986ZM50.773 14.4739C50.773 14.8661 51.0654 15.1228 51.5289 15.1228C52.135 15.1228 52.513 14.7449 52.513 14.1673V13.8607C52.2349 13.825 52.0352 13.8179 51.8498 13.8179C51.1296 13.8179 50.773 14.0318 50.773 14.4739ZM54.8871 15.5649H54.1598V10.4449H54.8871V15.5649ZM59.6647 15.6719C58.2385 15.6719 57.1332 14.5096 57.1332 12.9978C57.1332 11.4932 58.2385 10.338 59.6647 10.338C60.9482 10.338 61.9751 11.1937 62.1676 12.4559H61.3333C61.1907 11.6287 60.5204 11.0439 59.6718 11.0439C58.6592 11.0439 57.9461 11.864 57.9461 12.9978C57.9461 14.1459 58.6592 14.9659 59.6718 14.9659C60.5204 14.9659 61.1907 14.3741 61.3333 13.5469H62.1676C61.9751 14.8162 60.9482 15.6719 59.6647 15.6719ZM63.6453 13.4328V15.5649H62.9251V10.4449H63.6453V12.3917C63.8949 11.9852 64.2799 11.7142 64.8005 11.7142C65.5778 11.7142 66.0912 12.2134 66.0912 13.119V15.5649H65.371V13.3615C65.371 12.7126 65.0857 12.3489 64.5509 12.3489C64.0589 12.3489 63.6453 12.7625 63.6453 13.4328ZM68.6014 15.6363C67.5104 15.6363 66.7759 14.8447 66.7759 13.6539C66.7759 12.5343 67.5389 11.7142 68.5801 11.7142C69.7067 11.7142 70.4555 12.627 70.3271 13.8535H67.5104C67.5675 14.6237 67.9525 15.0729 68.5872 15.0729C69.122 15.0729 69.4928 14.7805 69.614 14.2885H70.3271C70.1417 15.13 69.4928 15.6363 68.6014 15.6363ZM68.5658 12.2562C67.9882 12.2562 67.596 12.6698 67.5175 13.3757H69.5641C69.5285 12.6769 69.1505 12.2562 68.5658 12.2562ZM72.5129 15.6434C71.4789 15.6434 70.7515 14.8305 70.7515 13.6752C70.7515 12.5343 71.4932 11.7142 72.5129 11.7142C73.447 11.7142 74.1245 12.3346 74.26 13.3187H73.5041C73.4256 12.7126 73.0477 12.3489 72.52 12.3489C71.8996 12.3489 71.4932 12.8766 71.4932 13.6752C71.4932 14.481 71.8996 15.0016 72.52 15.0016C73.0548 15.0016 73.4256 14.6451 73.5112 14.0318H74.26C74.1316 15.0301 73.4613 15.6434 72.5129 15.6434ZM75.7044 15.5649H74.9842V10.4449H75.7044V13.4756L77.3231 11.7856H78.1717L76.4246 13.6182L78.3357 15.5649H77.4087L75.7044 13.7751V15.5649ZM82.6913 14.0104V11.7856H83.4115V15.5649H82.7412V14.9659C82.5415 15.3581 82.0994 15.6363 81.586 15.6363C80.823 15.6363 80.2953 15.187 80.2953 14.2172V11.7856H81.0155V14.0746C81.0155 14.7306 81.3435 15.0016 81.8142 15.0016C82.2991 15.0016 82.6913 14.6023 82.6913 14.0104ZM88.0193 13.6752C88.0193 14.8162 87.3632 15.6363 86.3506 15.6363C85.8372 15.6363 85.4022 15.3795 85.1312 14.9232V16.9412H84.411V11.7856H85.0813V12.4773C85.3523 11.9924 85.8158 11.7142 86.3506 11.7142C87.3561 11.7142 88.0193 12.5343 88.0193 13.6752ZM87.2705 13.6752C87.2705 12.8267 86.8213 12.3489 86.2009 12.3489C85.6019 12.3489 85.1312 12.8267 85.1312 13.6752C85.1312 14.5096 85.5948 14.9945 86.2009 14.9945C86.8213 14.9945 87.2705 14.5238 87.2705 13.6752Z" fill="#838180"/>
<path d="M27.2617 23.8948H170.777C174.012 23.8948 176.635 26.5172 176.635 29.7522V48.0891C176.635 51.324 174.012 53.9465 170.777 53.9465H27.2617C24.0268 53.9465 21.4045 51.324 21.4043 48.0891V29.7522C21.4043 26.5172 24.0267 23.8948 27.2617 23.8948Z" fill="#FDFDFC"/>
<path d="M27.2617 23.8948H170.777C174.012 23.8948 176.635 26.5172 176.635 29.7522V48.0891C176.635 51.324 174.012 53.9465 170.777 53.9465H27.2617C24.0268 53.9465 21.4045 51.324 21.4043 48.0891V29.7522C21.4043 26.5172 24.0267 23.8948 27.2617 23.8948Z" stroke="#F0EFEF" stroke-width="0.509351"/>
<rect x="27.6437" y="30.1342" width="17.5726" height="17.5726" rx="2.67409" stroke="#F0EFEF" stroke-width="0.764027"/>
<g clip-path="url(#clip1_1081_30196)">
<path fill-rule="evenodd" clip-rule="evenodd" d="M36.048 34.7185C36.259 34.7185 36.43 34.8895 36.43 35.1005V35.8645C36.43 36.0755 36.259 36.2466 36.048 36.2466C35.837 36.2466 35.666 36.0755 35.666 35.8645V35.1005C35.666 34.8895 35.837 34.7185 36.048 34.7185Z" fill="#979694"/>
<path fill-rule="evenodd" clip-rule="evenodd" d="M33.7555 34.7185C33.9665 34.7185 34.1376 34.8895 34.1376 35.1005V35.8645C34.1376 36.0755 33.9665 36.2466 33.7555 36.2466C33.5446 36.2466 33.3735 36.0755 33.3735 35.8645V35.1005C33.3735 34.8895 33.5446 34.7185 33.7555 34.7185Z" fill="#979694"/>
<path fill-rule="evenodd" clip-rule="evenodd" d="M32.5632 35.436C32.7781 35.2211 33.0696 35.1003 33.3736 35.1003H33.7556C33.9666 35.1003 34.1376 35.2714 34.1376 35.4824C34.1376 35.6933 33.9666 35.8644 33.7556 35.8644H33.3736C33.2723 35.8644 33.1751 35.9046 33.1035 35.9763C33.0318 36.0479 32.9916 36.1451 32.9916 36.2464V37.7744C32.9916 38.281 33.1928 38.7669 33.551 39.1251C33.9092 39.4833 34.3951 39.6845 34.9016 39.6845C35.4082 39.6845 35.894 39.4833 36.2523 39.1251C36.6105 38.7669 36.8117 38.281 36.8117 37.7744V36.2464C36.8117 36.1451 36.7715 36.0479 36.6998 35.9763C36.6282 35.9046 36.531 35.8644 36.4297 35.8644H36.0477C35.8367 35.8644 35.6657 35.6933 35.6657 35.4824C35.6657 35.2714 35.8367 35.1003 36.0477 35.1003H36.4297C36.7336 35.1003 37.0251 35.2211 37.2401 35.436C37.455 35.6509 37.5757 35.9424 37.5757 36.2464V37.7744C37.5757 38.4836 37.294 39.1638 36.7925 39.6653C36.291 40.1668 35.6108 40.4485 34.9016 40.4485C34.1924 40.4485 33.5123 40.1668 33.0108 39.6653C32.5093 39.1638 32.2275 38.4836 32.2275 37.7744V36.2464C32.2275 35.9424 32.3483 35.6509 32.5632 35.436Z" fill="#979694"/>
<path fill-rule="evenodd" clip-rule="evenodd" d="M39.4862 38.5386C39.6972 38.5386 39.8682 38.7096 39.8682 38.9206V40.0666C39.8682 40.7758 39.5865 41.456 39.085 41.9575C38.5835 42.459 37.9033 42.7407 37.1941 42.7407C36.4849 42.7407 35.8047 42.459 35.3032 41.9575C34.8018 41.456 34.52 40.7758 34.52 40.0666C34.52 39.8556 34.6911 39.6846 34.902 39.6846C35.113 39.6846 35.284 39.8556 35.284 40.0666C35.284 40.5732 35.4853 41.059 35.8435 41.4172C36.2017 41.7755 36.6875 41.9767 37.1941 41.9767C37.7007 41.9767 38.1865 41.7755 38.5447 41.4172C38.9029 41.059 39.1042 40.5732 39.1042 40.0666V38.9206C39.1042 38.7096 39.2752 38.5386 39.4862 38.5386Z" fill="#979694"/>
<path fill-rule="evenodd" clip-rule="evenodd" d="M39.4859 37.7745C39.2749 37.7745 39.1039 37.9456 39.1039 38.1565C39.1039 38.3675 39.2749 38.5386 39.4859 38.5386C39.6969 38.5386 39.8679 38.3675 39.8679 38.1565C39.8679 37.9456 39.6969 37.7745 39.4859 37.7745ZM38.3398 38.1565C38.3398 37.5236 38.8529 37.0105 39.4859 37.0105C40.1188 37.0105 40.6319 37.5236 40.6319 38.1565C40.6319 38.7895 40.1188 39.3026 39.4859 39.3026C38.8529 39.3026 38.3398 38.7895 38.3398 38.1565Z" fill="#979694"/>
</g>
<rect x="51.7104" y="32.2747" width="119.107" height="7.0339" rx="3.51695" fill="#DEECFF"/>
<rect x="51.7104" y="41.3459" width="102.695" height="4.22034" rx="2.11017" fill="#E1E7EF" fill-opacity="0.8"/>
<path d="M27.2617 58.5308H170.777C174.012 58.5308 176.635 61.1532 176.635 64.3882V82.7251C176.635 85.96 174.012 88.5825 170.777 88.5825H27.2617C24.0268 88.5825 21.4045 85.96 21.4043 82.7251V64.3882C21.4043 61.1532 24.0267 58.5308 27.2617 58.5308Z" fill="#FDFDFC"/>
<path d="M27.2617 58.5308H170.777C174.012 58.5308 176.635 61.1532 176.635 64.3882V82.7251C176.635 85.96 174.012 88.5825 170.777 88.5825H27.2617C24.0268 88.5825 21.4045 85.96 21.4043 82.7251V64.3882C21.4043 61.1532 24.0267 58.5308 27.2617 58.5308Z" stroke="#F0EFEF" stroke-width="0.509351"/>
<rect x="27.6437" y="64.7702" width="17.5726" height="17.5726" rx="2.67409" stroke="#F0EFEF" stroke-width="0.764027"/>
<rect x="51.7104" y="66.676" width="119.107" height="7.50282" rx="3.75141" fill="#DEECFF"/>
<path d="M187.222 23.8948H330.738C333.973 23.8948 336.595 26.5172 336.595 29.7522V48.0891C336.595 51.324 333.973 53.9465 330.738 53.9465H187.222C183.987 53.9465 181.365 51.324 181.365 48.0891V29.7522C181.365 26.5172 183.987 23.8948 187.222 23.8948Z" fill="#FDFDFC"/>
<path d="M187.222 23.8948H330.738C333.973 23.8948 336.595 26.5172 336.595 29.7522V48.0891C336.595 51.324 333.973 53.9465 330.738 53.9465H187.222C183.987 53.9465 181.365 51.324 181.365 48.0891V29.7522C181.365 26.5172 183.987 23.8948 187.222 23.8948Z" stroke="#F0EFEF" stroke-width="0.509351"/>
<rect x="187.604" y="30.1342" width="17.5726" height="17.5726" rx="2.67409" stroke="#F0EFEF" stroke-width="0.764027"/>
<g clip-path="url(#clip2_1081_30196)">
<path fill-rule="evenodd" clip-rule="evenodd" d="M196.008 34.7185C196.219 34.7185 196.39 34.8895 196.39 35.1005V35.8645C196.39 36.0755 196.219 36.2466 196.008 36.2466C195.797 36.2466 195.626 36.0755 195.626 35.8645V35.1005C195.626 34.8895 195.797 34.7185 196.008 34.7185Z" fill="#979694"/>
<path fill-rule="evenodd" clip-rule="evenodd" d="M193.716 34.7185C193.927 34.7185 194.098 34.8895 194.098 35.1005V35.8645C194.098 36.0755 193.927 36.2466 193.716 36.2466C193.505 36.2466 193.334 36.0755 193.334 35.8645V35.1005C193.334 34.8895 193.505 34.7185 193.716 34.7185Z" fill="#979694"/>
<path fill-rule="evenodd" clip-rule="evenodd" d="M192.524 35.436C192.739 35.2211 193.03 35.1003 193.334 35.1003H193.716C193.927 35.1003 194.098 35.2714 194.098 35.4824C194.098 35.6933 193.927 35.8644 193.716 35.8644H193.334C193.233 35.8644 193.136 35.9046 193.064 35.9763C192.992 36.0479 192.952 36.1451 192.952 36.2464V37.7744C192.952 38.281 193.153 38.7669 193.511 39.1251C193.87 39.4833 194.356 39.6845 194.862 39.6845C195.369 39.6845 195.854 39.4833 196.213 39.1251C196.571 38.7669 196.772 38.281 196.772 37.7744V36.2464C196.772 36.1451 196.732 36.0479 196.66 35.9763C196.589 35.9046 196.491 35.8644 196.39 35.8644H196.008C195.797 35.8644 195.626 35.6933 195.626 35.4824C195.626 35.2714 195.797 35.1003 196.008 35.1003H196.39C196.694 35.1003 196.986 35.2211 197.201 35.436C197.415 35.6509 197.536 35.9424 197.536 36.2464V37.7744C197.536 38.4836 197.254 39.1638 196.753 39.6653C196.251 40.1668 195.571 40.4485 194.862 40.4485C194.153 40.4485 193.473 40.1668 192.971 39.6653C192.47 39.1638 192.188 38.4836 192.188 37.7744V36.2464C192.188 35.9424 192.309 35.6509 192.524 35.436Z" fill="#979694"/>
<path fill-rule="evenodd" clip-rule="evenodd" d="M199.447 38.5386C199.658 38.5386 199.829 38.7096 199.829 38.9206V40.0666C199.829 40.7758 199.547 41.456 199.045 41.9575C198.544 42.459 197.864 42.7407 197.155 42.7407C196.445 42.7407 195.765 42.459 195.264 41.9575C194.762 41.456 194.48 40.7758 194.48 40.0666C194.48 39.8556 194.652 39.6846 194.862 39.6846C195.073 39.6846 195.244 39.8556 195.244 40.0666C195.244 40.5732 195.446 41.059 195.804 41.4172C196.162 41.7755 196.648 41.9767 197.155 41.9767C197.661 41.9767 198.147 41.7755 198.505 41.4172C198.863 41.059 199.065 40.5732 199.065 40.0666V38.9206C199.065 38.7096 199.236 38.5386 199.447 38.5386Z" fill="#979694"/>
<path fill-rule="evenodd" clip-rule="evenodd" d="M199.446 37.7745C199.235 37.7745 199.064 37.9456 199.064 38.1565C199.064 38.3675 199.235 38.5386 199.446 38.5386C199.657 38.5386 199.828 38.3675 199.828 38.1565C199.828 37.9456 199.657 37.7745 199.446 37.7745ZM198.3 38.1565C198.3 37.5236 198.813 37.0105 199.446 37.0105C200.079 37.0105 200.592 37.5236 200.592 38.1565C200.592 38.7895 200.079 39.3026 199.446 39.3026C198.813 39.3026 198.3 38.7895 198.3 38.1565Z" fill="#979694"/>
</g>
<rect x="211.671" y="32.2747" width="119.107" height="7.0339" rx="3.51695" fill="#DEECFF"/>
<rect x="211.671" y="41.3459" width="102.695" height="4.22034" rx="2.11017" fill="#E1E7EF" fill-opacity="0.8"/>
<path d="M187.222 58.5308H330.738C333.973 58.5308 336.595 61.1532 336.595 64.3882V82.7251C336.595 85.96 333.973 88.5825 330.738 88.5825H187.222C183.987 88.5825 181.365 85.96 181.365 82.7251V64.3882C181.365 61.1532 183.987 58.5308 187.222 58.5308Z" fill="#FDFDFC"/>
<path d="M187.222 58.5308H330.738C333.973 58.5308 336.595 61.1532 336.595 64.3882V82.7251C336.595 85.96 333.973 88.5825 330.738 88.5825H187.222C183.987 88.5825 181.365 85.96 181.365 82.7251V64.3882C181.365 61.1532 183.987 58.5308 187.222 58.5308Z" stroke="#F0EFEF" stroke-width="0.509351"/>
<rect x="187.604" y="64.7702" width="17.5726" height="17.5726" rx="2.67409" stroke="#F0EFEF" stroke-width="0.764027"/>
<rect x="211.671" y="66.676" width="119.107" height="7.50282" rx="3.75141" fill="#DEECFF"/>
</g>
<path fill-rule="evenodd" clip-rule="evenodd" d="M201.381 37.0752C201.198 37.0001 200.997 36.9807 200.804 37.0195C200.61 37.0583 200.432 37.1535 200.293 37.2932C200.153 37.4328 200.058 37.6107 200.019 37.8043C199.981 37.998 200 38.1987 200.076 38.3812L207.076 55.3812C207.15 55.5634 207.278 55.7193 207.441 55.8295C207.604 55.9397 207.796 55.9992 207.993 56.0006C208.19 56.002 208.383 55.9452 208.548 55.8373C208.713 55.7294 208.842 55.5753 208.92 55.3942L211.605 49.1292C211.706 48.8933 211.894 48.7054 212.13 48.6042L218.395 45.9192C218.576 45.8417 218.73 45.7124 218.838 45.5476C218.945 45.3828 219.002 45.1899 219.001 44.9929C218.999 44.796 218.94 44.6038 218.83 44.4405C218.72 44.2773 218.564 44.1502 218.382 44.0752L201.381 37.0752Z" fill="black"/>
</g>
<defs>
<filter id="filter0_d_1081_30196" x="2.81297" y="-8.14962" width="352.374" height="115.776" filterUnits="userSpaceOnUse" color-interpolation-filters="sRGB">
<feFlood flood-opacity="0" result="BackgroundImageFix"/>
<feColorMatrix in="SourceAlpha" type="matrix" values="0 0 0 0 0 0 0 0 0 0 0 0 0 0 0 0 0 0 127 0" result="hardAlpha"/>
<feOffset dy="2.03741"/>
<feGaussianBlur stdDeviation="5.09351"/>
<feComposite in2="hardAlpha" operator="out"/>
<feColorMatrix type="matrix" values="0 0 0 0 0 0 0 0 0 0 0 0 0 0 0 0 0 0 0.15 0"/>
<feBlend mode="normal" in2="BackgroundImageFix" result="effect1_dropShadow_1081_30196"/>
<feBlend mode="normal" in="SourceGraphic" in2="effect1_dropShadow_1081_30196" result="shape"/>
</filter>
<clipPath id="clip0_1081_30196">
<rect width="357" height="68" fill="white"/>
</clipPath>
<clipPath id="clip1_1081_30196">
<rect width="9.16832" height="9.16832" fill="white" transform="translate(31.8457 34.3364)"/>
</clipPath>
<clipPath id="clip2_1081_30196">
<rect width="9.16832" height="9.16832" fill="white" transform="translate(191.806 34.3364)"/>
</clipPath>
</defs>
</svg>
