<svg width="357" height="68" viewBox="0 0 357 68" fill="none" xmlns="http://www.w3.org/2000/svg">
<g clip-path="url(#clip0_1074_38124)">
<g filter="url(#filter0_ddd_1074_38124)">
<path d="M29.7944 11.6383C30.0331 7.91059 33.2485 5.08216 36.9762 5.32085L104.09 9.61807C107.817 9.85675 110.646 13.0722 110.407 16.7999L108.045 53.6956C107.806 57.4233 104.591 60.2518 100.863 60.0131L33.7494 55.7158C30.0217 55.4772 27.1933 52.2618 27.432 48.534L29.7944 11.6383Z" fill="#FDFDFC"/>
<path d="M36.9584 5.60251L104.072 9.89974C107.644 10.1286 110.355 13.2098 110.126 16.7821L107.764 53.6772C107.535 57.2495 104.453 59.9609 100.881 59.7323L33.7676 55.435C30.1952 55.2063 27.4849 52.1241 27.7137 48.5517L30.076 11.6566C30.3048 8.08416 33.386 5.37377 36.9584 5.60251Z" stroke="#F0EFEF" stroke-width="0.56362"/>
<rect x="37.0828" y="10.2694" width="19.4449" height="19.4449" rx="2.95901" transform="rotate(3.6636 37.0828 10.2694)" stroke="#F0EFEF" stroke-width="0.845431"/>
<g clip-path="url(#clip1_1074_38124)">
<path d="M51.1574 16.1997C50.7096 15.6911 49.876 15.6378 49.3675 16.0851L41.0249 23.4236C40.9576 23.4829 40.9106 23.562 40.8914 23.6497C40.8569 23.8047 40.8724 24.0395 41.018 24.2326C41.1132 24.3595 41.299 24.515 41.6441 24.537C41.844 24.5498 42.0146 24.5646 42.1148 24.5672C42.8761 24.5859 43.6262 24.4611 44.3446 24.197C45.4685 23.7835 46.275 22.9643 46.6826 21.8243L51.0419 17.9896C51.5671 17.5276 51.6185 16.7253 51.1565 16.2001L51.1574 16.1997ZM44.0531 23.4032C43.435 23.6305 42.7898 23.7374 42.1355 23.7218C42.0547 23.72 41.9923 23.716 41.9746 23.714L45.1319 20.9371L45.8336 21.681C45.4973 22.5134 44.8986 23.0922 44.0531 23.4032ZM50.4841 17.3545L46.3474 20.9934L45.767 20.3784L49.9262 16.7198C50.0955 16.5701 50.3735 16.5879 50.5227 16.758C50.6767 16.9331 50.6591 17.2005 50.4841 17.3545ZM48.3982 25.3956C48.3832 25.6289 48.1822 25.8054 47.9493 25.7905L47.1056 25.7364C46.8727 25.7215 46.6958 25.5209 46.7107 25.2876C46.7257 25.0543 46.9267 24.8778 47.1596 24.8927L48.0033 24.9468C48.2362 24.9617 48.4131 25.1623 48.3982 25.3956ZM45.867 25.2336C45.8521 25.4668 45.651 25.6433 45.4182 25.6284L44.5745 25.5744C44.3416 25.5595 44.1647 25.3588 44.1796 25.1255C44.1946 24.8922 44.3956 24.7158 44.6285 24.7307L45.4722 24.7847C45.7051 24.7996 45.882 25.0003 45.867 25.2336ZM50.9293 25.5577C50.9143 25.791 50.7133 25.9674 50.4804 25.9525L49.6367 25.8985C49.4038 25.8836 49.2269 25.6829 49.2419 25.4496C49.2568 25.2164 49.4579 25.0399 49.6907 25.0548L50.5344 25.1088C50.7673 25.1237 50.9442 25.3244 50.9293 25.5577Z" fill="#979694"/>
</g>
<path d="M67.2496 24.9495L66.8275 23.515L64.3864 23.3587L63.7769 24.7271L62.9028 24.6711L65.4303 19.1559L66.3832 19.2169L68.1709 25.0085L67.2496 24.9495ZM65.8266 20.1301L64.6911 22.6745L66.6125 22.7975L65.8266 20.1301ZM71.449 23.4947L71.6063 21.0378L72.4016 21.0887L72.1344 25.2622L71.3942 25.2148L71.4365 24.5534C71.1883 24.9724 70.6804 25.2482 70.1135 25.2119C69.2709 25.158 68.7199 24.6245 68.7885 23.5536L68.9604 20.8684L69.7558 20.9193L69.5939 23.447C69.5475 24.1715 69.8906 24.4939 70.4103 24.5272C70.9458 24.5615 71.4071 24.1482 71.449 23.4947ZM75.6421 24.712L75.5972 25.4128C75.346 25.5074 75.1309 25.5332 74.8789 25.517C74.1072 25.4676 73.5984 25.016 73.6574 24.0947L73.8006 21.8583L72.8793 21.7993L72.9227 21.1221L73.844 21.1811L73.9231 19.9448L74.7185 19.9957L74.6393 21.232L75.8992 21.3127L75.8559 21.9899L74.596 21.9092L74.4644 23.9645C74.4275 24.5393 74.69 24.7617 75.1153 24.7889C75.3043 24.801 75.4716 24.7801 75.6421 24.712ZM78.018 25.718C76.8368 25.6424 76.0301 24.6577 76.1093 23.4214C76.1885 22.1851 77.1141 21.3114 78.2953 21.387C79.4765 21.4626 80.2832 22.4473 80.2041 23.6836C80.1249 24.9199 79.1992 25.7937 78.018 25.718ZM78.0629 25.0172C78.748 25.0611 79.3266 24.5446 79.3851 23.6312C79.4436 22.7177 78.935 22.1396 78.25 22.0957C77.5649 22.0519 76.9946 22.5609 76.9361 23.4744C76.8776 24.3878 77.3778 24.9733 78.0629 25.0172ZM82.3701 27.5306C81.2755 27.4605 80.6041 26.8324 80.6174 25.8845L81.3891 25.9339C81.399 26.5196 81.7568 26.8588 82.4025 26.9001C83.1191 26.946 83.5218 26.5844 83.5677 25.8678L83.6161 25.1118C83.3476 25.6007 82.8565 25.8618 82.2895 25.8255C81.2501 25.7589 80.5648 24.8532 80.6435 23.6248C80.7231 22.3806 81.4853 21.5913 82.5326 21.6583C83.1311 21.6966 83.5849 22.0183 83.8346 22.564L83.882 21.8238L84.6222 21.8712L84.364 25.903C84.294 26.9975 83.5513 27.6062 82.3701 27.5306ZM81.4467 23.6762C81.3912 24.5424 81.7826 25.0972 82.4756 25.1416C83.1528 25.185 83.6443 24.6709 83.6973 23.844C83.7527 22.9778 83.3392 22.3979 82.6541 22.354C81.969 22.3101 81.5016 22.8179 81.4467 23.6762ZM86.3872 24.0321L86.2505 26.1661L85.4552 26.1152L85.7224 21.9416L86.4626 21.989L86.4062 22.871C86.7343 22.3148 87.3875 21.9929 88.0726 22.0368L88.0196 22.8636C87.125 22.7589 86.4462 23.1107 86.3872 24.0321ZM90.9582 26.4675L90.9995 25.8218C90.7099 26.2698 90.2287 26.4999 89.6145 26.4605C88.7483 26.4051 88.2131 25.8727 88.262 25.1088C88.3144 24.2899 88.9952 23.9065 90.2394 23.9862C90.4835 24.0018 90.6799 24.0223 91.0159 24.0833L91.0356 23.7762C91.0739 23.1778 90.7728 22.8185 90.2215 22.7832C89.6388 22.7459 89.2623 23.0697 89.2013 23.6509L88.4769 23.6045C88.5763 22.6699 89.2854 22.0907 90.2619 22.1532C91.2934 22.2193 91.8546 22.8403 91.7911 23.8325L91.6196 26.5099L90.9582 26.4675ZM89.0194 25.1336C88.9917 25.5667 89.2964 25.8709 89.8083 25.9037C90.4776 25.9465 90.9217 25.5559 90.9625 24.918L90.9842 24.5794C90.6796 24.5204 90.4596 24.4984 90.2549 24.4853C89.4595 24.4344 89.0507 24.6454 89.0194 25.1336ZM93.8171 26.6506L93.0218 26.5996L93.2456 23.1033L92.3243 23.0443L92.3677 22.3671L93.289 22.4261L93.3086 22.119C93.3601 21.3158 93.8214 20.9026 94.6089 20.953C94.8451 20.9681 95.0316 21.0196 95.185 21.0927L95.1437 21.7384C95.0212 21.6752 94.8805 21.6504 94.7387 21.6413C94.3608 21.6171 94.1292 21.7762 94.1035 22.1778L94.0843 22.477L95.2497 22.5517L95.2064 23.2289L94.0409 23.1543L93.8171 26.6506ZM98.2613 26.1602L98.2164 26.8611C97.9653 26.9557 97.7501 26.9815 97.4981 26.9653C96.7264 26.9159 96.2177 26.4643 96.2767 25.5429L96.4199 23.3066L95.4986 23.2476L95.5419 22.5704L96.4632 22.6294L96.5424 21.3931L97.3377 21.444L97.2586 22.6803L98.5185 22.761L98.4751 23.4382L97.2152 23.3575L97.0836 25.4128C97.0468 25.9876 97.3093 26.21 97.7345 26.2372C97.9235 26.2493 98.0909 26.2284 98.2613 26.1602ZM102.381 25.9496C102.329 26.7686 101.659 27.2317 100.548 27.1606C99.4458 27.09 98.827 26.5048 98.8058 25.6021L99.5696 25.651C99.5678 26.1727 99.9645 26.5223 100.602 26.5632C101.161 26.599 101.544 26.4258 101.569 26.0321C101.592 25.6856 101.388 25.5224 100.875 25.3867L100.206 25.2174C99.4441 25.0183 99.0362 24.5969 99.0765 23.9669C99.1234 23.2346 99.794 22.7636 100.763 22.8256C101.763 22.8896 102.406 23.4684 102.421 24.3313L101.658 24.2824C101.643 23.7754 101.291 23.4603 100.732 23.4245C100.228 23.3923 99.8759 23.5832 99.8527 23.9454C99.8311 24.284 100.034 24.4552 100.532 24.5819L101.232 24.7612C102.049 24.9637 102.419 25.3512 102.381 25.9496Z" fill="#1C1C1C"/>
<rect x="34.9595" y="36.8191" width="68.6058" height="7.74582" rx="3.87291" transform="rotate(3.6636 34.9595 36.8191)" fill="#DEECFF"/>
<rect x="34.3203" y="46.799" width="59.7535" height="4.42618" rx="2.21309" transform="rotate(3.6636 34.3203 46.799)" fill="#E1E7EF" fill-opacity="0.8"/>
</g>
<g filter="url(#filter1_ddd_1074_38124)">
<path d="M103.869 17.5692C103.366 13.8678 105.96 10.4598 109.661 9.9573L176.301 0.909971C180.002 0.407452 183.41 3.00065 183.912 6.70204L188.886 43.3372C189.389 47.0386 186.795 50.4466 183.094 50.9491L116.455 59.9964C112.753 60.499 109.345 57.9058 108.843 54.2044L103.869 17.5692Z" fill="#FDFDFC"/>
<path d="M109.699 10.2369L176.339 1.1896C179.886 0.708168 183.152 3.19309 183.633 6.74017L188.607 43.3748C189.089 46.9219 186.604 50.1885 183.057 50.6702L116.417 59.7176C112.87 60.1991 109.604 57.7132 109.122 54.166L104.149 17.5314C103.667 13.9842 106.152 10.7185 109.699 10.2369Z" stroke="#F0EFEF" stroke-width="0.56362"/>
<rect x="110.743" y="14.7873" width="19.4449" height="19.4449" rx="2.95901" transform="rotate(-7.73149 110.743 14.7873)" stroke="#F0EFEF" stroke-width="0.845431"/>
<g clip-path="url(#clip2_1074_38124)">
<path d="M125.712 17.82C125.173 17.4099 124.345 17.5223 123.935 18.0613L117.207 26.9034C117.152 26.9748 117.122 27.0617 117.12 27.1514C117.117 27.3101 117.179 27.5373 117.36 27.6978C117.478 27.8033 117.691 27.9191 118.033 27.8726C118.232 27.8456 118.402 27.8263 118.501 27.8091C119.251 27.677 119.962 27.4065 120.614 27.0057C121.634 26.3783 122.262 25.4159 122.437 24.2178L125.952 19.5974C126.376 19.0408 126.268 18.2441 125.711 17.8205L125.712 17.82ZM120.171 26.2851C119.61 26.63 118.999 26.8623 118.354 26.9763C118.275 26.9905 118.213 26.9989 118.195 27.0004L120.741 23.6545L121.576 24.245C121.411 25.1275 120.938 25.8132 120.171 26.2851ZM125.28 19.085L121.944 23.4695L121.254 22.9813L124.608 18.5731C124.744 18.3929 125.02 18.3554 125.2 18.4927C125.386 18.6339 125.421 18.8995 125.28 19.085ZM124.824 27.3798C124.855 27.6114 124.693 27.8241 124.462 27.8555L123.624 27.9693C123.393 28.0007 123.18 27.8389 123.149 27.6073C123.117 27.3756 123.279 27.1629 123.511 27.1315L124.348 27.0178C124.58 26.9864 124.793 27.1481 124.824 27.3798ZM122.311 27.721C122.342 27.9526 122.18 28.1653 121.949 28.1967L121.111 28.3105C120.88 28.3419 120.667 28.1801 120.635 27.9485C120.604 27.7168 120.766 27.5041 120.997 27.4727L121.835 27.359C122.066 27.3276 122.279 27.4894 122.311 27.721ZM127.337 27.0386C127.369 27.2702 127.206 27.4829 126.975 27.5143L126.138 27.6281C125.906 27.6594 125.693 27.4977 125.662 27.266C125.63 27.0344 125.793 26.8217 126.024 26.7903L126.862 26.6766C127.093 26.6452 127.306 26.8069 127.337 27.0386Z" fill="#979694"/>
</g>
<path d="M143.505 23.1787L142.807 21.8559L140.383 22.185L140.056 23.6468L139.188 23.7647L140.576 17.8587L141.523 17.7303L144.419 23.0545L143.505 23.1787ZM141.157 18.7354L140.547 21.4541L142.455 21.1951L141.157 18.7354ZM145.927 22.8498L145.13 22.958L144.368 17.344L145.165 17.2358L145.927 22.8498ZM147.82 22.5928L147.023 22.7011L146.26 17.0871L147.058 16.9788L147.82 22.5928ZM150.662 22.2866C149.489 22.4458 148.504 21.64 148.337 20.4124C148.17 19.1848 148.905 18.1454 150.078 17.9862C151.251 17.8269 152.236 18.6328 152.403 19.8604C152.57 21.088 151.835 22.1274 150.662 22.2866ZM150.567 21.5907C151.248 21.4984 151.713 20.8778 151.59 19.9708C151.467 19.0638 150.854 18.5975 150.174 18.6899C149.493 18.7822 149.035 19.3939 149.158 20.3009C149.281 21.2079 149.887 21.6831 150.567 21.5907ZM155.286 23.2036C154.199 23.3512 153.417 22.8681 153.243 21.9362L154.009 21.8322C154.135 22.4044 154.552 22.6662 155.194 22.5792C155.905 22.4826 156.228 22.0485 156.132 21.3369L156.03 20.5863C155.863 21.1186 155.433 21.4716 154.87 21.548C153.838 21.6881 152.988 20.9357 152.822 19.7159C152.654 18.4805 153.246 17.5562 154.285 17.415C154.88 17.3343 155.388 17.5599 155.741 18.0456L155.641 17.3106L156.376 17.2108L156.919 21.2141C157.067 22.3009 156.459 23.0444 155.286 23.2036ZM153.62 19.6076C153.736 20.4677 154.23 20.9343 154.918 20.8408C155.59 20.7495 155.97 20.1485 155.859 19.3275C155.742 18.4674 155.222 17.9806 154.542 18.0729C153.862 18.1653 153.504 18.7554 153.62 19.6076ZM158.533 18.9804L158.821 21.0993L158.031 21.2065L157.468 17.0625L158.203 16.9627L158.322 17.8384C158.534 17.2283 159.111 16.7838 159.791 16.6914L159.902 17.5124C159.005 17.5865 158.409 18.0655 158.533 18.9804ZM163.495 20.4647L163.408 19.8235C163.213 20.3199 162.786 20.6405 162.176 20.7233C161.316 20.8401 160.687 20.4239 160.584 19.6655C160.473 18.8523 161.065 18.342 162.3 18.1743C162.543 18.1414 162.739 18.1226 163.081 18.1161L163.039 17.8112C162.959 17.2169 162.592 16.9242 162.045 16.9985C161.466 17.0771 161.161 17.4689 161.216 18.0507L160.497 18.1483C160.41 17.2126 160.991 16.5046 161.96 16.373C162.984 16.234 163.657 16.7319 163.791 17.7171L164.152 20.3755L163.495 20.4647ZM161.331 19.5401C161.389 19.9702 161.748 20.2081 162.256 20.1391C162.921 20.0489 163.279 19.5782 163.193 18.9449L163.148 18.6087C162.837 18.611 162.617 18.6329 162.414 18.6605C161.624 18.7677 161.265 19.0554 161.331 19.5401ZM166.334 20.0793L165.544 20.1865L165.073 16.7149L164.158 16.8391L164.067 16.1666L164.981 16.0424L164.94 15.7375C164.832 14.94 165.202 14.4437 165.984 14.3376C166.219 14.3057 166.412 14.3193 166.577 14.3607L166.664 15.0018C166.531 14.9641 166.388 14.9675 166.248 14.9867C165.872 15.0376 165.677 15.2393 165.731 15.6381L165.771 15.9352L166.928 15.7781L167.02 16.4506L165.862 16.6077L166.334 20.0793ZM170.594 18.7206L170.688 19.4165C170.461 19.5588 170.255 19.6266 170.005 19.6606C169.238 19.7646 168.65 19.4224 168.526 18.5076L168.225 16.287L167.31 16.4112L167.219 15.7387L168.133 15.6145L167.967 14.387L168.756 14.2797L168.923 15.5073L170.174 15.3375L170.265 16.0099L169.014 16.1798L169.291 18.2205C169.369 18.7913 169.67 18.9574 170.092 18.9001C170.28 18.8746 170.44 18.8211 170.594 18.7206ZM174.591 17.7001C174.701 18.5133 174.136 19.0997 173.033 19.2494C171.938 19.398 171.216 18.9466 171.017 18.0659L171.775 17.9629C171.877 18.4747 172.335 18.739 172.968 18.653C173.523 18.5777 173.864 18.3323 173.811 17.9413C173.764 17.5973 173.533 17.4774 173.003 17.4458L172.314 17.412C171.527 17.3675 171.044 17.0349 170.959 16.4094C170.861 15.6822 171.425 15.088 172.387 14.9575C173.38 14.8226 174.124 15.263 174.31 16.1057L173.552 16.2087C173.437 15.7147 173.03 15.4753 172.475 15.5506C171.975 15.6186 171.667 15.8753 171.716 16.235C171.762 16.5712 171.994 16.6989 172.507 16.7248L173.229 16.7622C174.07 16.7993 174.51 17.1059 174.591 17.7001Z" fill="#1C1C1C"/>
<rect x="113.907" y="41.2332" width="68.6058" height="7.74582" rx="3.87291" transform="rotate(-7.73149 113.907 41.2332)" fill="#DEECFF"/>
<rect x="115.252" y="51.1426" width="59.7535" height="4.42618" rx="2.21309" transform="rotate(-7.73149 115.252 51.1426)" fill="#E1E7EF" fill-opacity="0.8"/>
</g>
<g filter="url(#filter2_ddd_1074_38124)">
<path d="M249.84 17.4998C249.84 13.7644 252.868 10.7363 256.603 10.7363H323.854C327.59 10.7363 330.618 13.7644 330.618 17.4998V55.5776C330.618 59.313 327.59 62.3411 323.854 62.3411H256.603C252.868 62.3411 249.84 59.313 249.84 55.5776V17.4998Z" fill="#FDFDFC"/>
<path d="M256.604 11.0186H323.854C327.434 11.0187 330.336 13.9204 330.336 17.5V55.5771C330.336 59.1568 327.434 62.0594 323.854 62.0596H256.604C253.024 62.0596 250.122 59.1569 250.122 55.5771V17.5C250.122 13.9203 253.024 11.0186 256.604 11.0186Z" stroke="#F0EFEF" stroke-width="0.56362"/>
<rect x="257.026" y="15.668" width="19.4449" height="19.4449" rx="2.95901" stroke="#F0EFEF" stroke-width="0.845431"/>
<g clip-path="url(#clip3_1074_38124)">
<path d="M271.451 20.687C270.972 20.208 270.137 20.208 269.658 20.687L261.801 28.5435C261.738 28.607 261.696 28.689 261.682 28.7777C261.658 28.9346 261.688 29.1679 261.846 29.3514C261.949 29.4718 262.144 29.6151 262.49 29.6151C262.691 29.6151 262.862 29.6189 262.962 29.6151C263.723 29.5851 264.463 29.4127 265.163 29.1032C266.259 28.6188 267.011 27.7497 267.345 26.586L271.45 22.4805C271.945 21.986 271.945 21.182 271.45 20.6874L271.451 20.687ZM264.822 28.3297C264.219 28.596 263.582 28.7439 262.929 28.7701C262.848 28.7735 262.785 28.7735 262.767 28.7727L265.741 25.7997L266.489 26.4972C266.206 27.3494 265.646 27.9653 264.822 28.3297ZM270.853 21.8824L266.957 25.7781L266.339 25.2016L270.256 21.2847C270.415 21.1245 270.694 21.1245 270.854 21.2847C271.018 21.4495 271.018 21.7175 270.853 21.8824ZM269.285 30.0404C269.285 30.2741 269.096 30.4631 268.863 30.4631H268.017C267.784 30.4631 267.594 30.2741 267.594 30.0404C267.594 29.8066 267.784 29.6177 268.017 29.6177H268.863C269.096 29.6177 269.285 29.8066 269.285 30.0404ZM266.749 30.0404C266.749 30.2741 266.56 30.4631 266.326 30.4631H265.481C265.248 30.4631 265.058 30.2741 265.058 30.0404C265.058 29.8066 265.248 29.6177 265.481 29.6177H266.326C266.56 29.6177 266.749 29.8066 266.749 30.0404ZM271.822 30.0404C271.822 30.2741 271.632 30.4631 271.399 30.4631H270.553C270.32 30.4631 270.131 30.2741 270.131 30.0404C270.131 29.8066 270.32 29.6177 270.553 29.6177H271.399C271.632 29.6177 271.822 29.8066 271.822 30.0404Z" fill="#979694"/>
</g>
<path d="M288.448 26.7649C288.448 27.7986 287.691 28.3904 286.515 28.3904H284.44V22.7249H286.405C287.549 22.7249 288.235 23.2535 288.235 24.2083C288.235 24.7449 287.912 25.2025 287.367 25.4393C288.069 25.6365 288.448 26.1179 288.448 26.7649ZM286.349 23.4192H285.237V25.1236H286.349C287.036 25.1236 287.407 24.8001 287.407 24.2714C287.407 23.7428 287.036 23.4192 286.349 23.4192ZM286.46 25.818H285.237V27.696H286.46C287.201 27.696 287.62 27.3409 287.62 26.7412C287.62 26.1652 287.201 25.818 286.46 25.818ZM293.038 27.6329V28.3904H289.448V22.7249H292.983V23.4824H290.316V25.0921H292.746V25.8496H290.316V27.6329H293.038ZM297.953 28.3904L297.44 26.9858H294.994L294.473 28.3904H293.597L295.767 22.7249H296.722L298.876 28.3904H297.953ZM296.225 23.6718L295.254 26.2836H297.18L296.225 23.6718ZM300.524 28.3904H299.656V22.7249H301.771C303.073 22.7249 303.854 23.364 303.854 24.4924C303.854 25.3051 303.341 25.9285 302.481 26.1336L304.02 28.3904H302.978L301.566 26.2599H300.524V28.3904ZM300.524 23.4508V25.534H301.716C302.521 25.534 302.978 25.1789 302.978 24.4924C302.978 23.8138 302.521 23.4508 301.716 23.4508H300.524Z" fill="#1C1C1C"/>
<rect x="256.604" y="42.2991" width="67.4993" height="7.74582" rx="3.87291" fill="#DEECFF"/>
<rect x="256.604" y="52.2993" width="58.6469" height="5.53273" rx="2.76636" fill="#E1E7EF" fill-opacity="0.8"/>
</g>
<g filter="url(#filter3_ddd_1074_38124)">
<path d="M179.445 10.3663C179.913 6.66043 183.297 4.03611 187.003 4.5047L253.723 12.9411C257.429 13.4097 260.053 16.7937 259.584 20.4995L254.946 57.1788C254.478 60.8846 251.094 63.5089 247.388 63.0404L180.668 54.604C176.962 54.1354 174.338 50.7514 174.807 47.0455L179.445 10.3663Z" fill="#1C1C1C"/>
<path d="M186.968 4.78472L253.688 13.2211C257.239 13.6703 259.754 16.9131 259.305 20.4644L254.667 57.1431C254.218 60.6944 250.975 63.2101 247.423 62.7612L180.704 54.3248C177.152 53.8758 174.638 50.632 175.087 47.0805L179.724 10.4019C180.174 6.85047 183.416 4.33566 186.968 4.78472Z" stroke="#F0EFEF" stroke-width="0.56362"/>
<rect x="186.438" y="8.97803" width="20.2903" height="20.2903" rx="3.38172" transform="rotate(7.20652 186.438 8.97803)" fill="#E4F28A"/>
<rect x="186.804" y="9.45043" width="19.4449" height="19.4449" rx="2.95901" transform="rotate(7.20652 186.804 9.45043)" stroke="#F0EFEF" stroke-opacity="0.24" stroke-width="0.845431"/>
<g clip-path="url(#clip4_1074_38124)">
<path d="M200.485 16.2392C200.069 15.7039 199.241 15.5991 198.705 16.0142L189.925 22.8231C189.854 22.8781 189.803 22.9542 189.778 23.0405C189.734 23.1931 189.735 23.4284 189.868 23.6302C189.956 23.7626 190.131 23.9293 190.474 23.9727C190.673 23.9978 190.843 24.023 190.942 24.0318C191.701 24.0975 192.457 24.0193 193.191 23.8001C194.338 23.4569 195.194 22.6891 195.671 21.5764L200.259 18.0185C200.812 17.5898 200.913 16.7922 200.484 16.2395L200.485 16.2392ZM192.949 22.9898C192.318 23.1785 191.667 23.2454 191.015 23.1893C190.935 23.1825 190.873 23.1747 190.855 23.1716L194.178 20.5952L194.832 21.3809C194.445 22.191 193.812 22.7317 192.949 22.9898ZM199.741 17.3501L195.388 20.7264L194.846 20.0768L199.224 16.6822C199.402 16.5432 199.678 16.5782 199.817 16.7572C199.96 16.9414 199.926 17.2072 199.741 17.3501ZM197.163 25.247C197.133 25.4789 196.922 25.6426 196.69 25.6133L195.851 25.5073C195.62 25.478 195.456 25.2668 195.485 25.0349C195.514 24.803 195.726 24.6392 195.957 24.6685L196.796 24.7746C197.028 24.8038 197.192 25.0151 197.163 25.247ZM194.646 24.9288C194.617 25.1607 194.405 25.3244 194.174 25.2952L193.335 25.1891C193.104 25.1598 192.939 24.9486 192.969 24.7167C192.998 24.4848 193.21 24.3211 193.441 24.3504L194.28 24.4564C194.511 24.4857 194.676 24.6969 194.646 24.9288ZM199.679 25.5651C199.649 25.7971 199.438 25.9608 199.206 25.9315L198.368 25.8254C198.136 25.7962 197.972 25.5849 198.001 25.353C198.031 25.1211 198.242 24.9574 198.474 24.9867L199.312 25.0927C199.544 25.122 199.708 25.3332 199.679 25.5651Z" fill="#1C1C1C"/>
</g>
<path d="M216.112 25.98L215.779 24.5222L213.352 24.2154L212.659 25.5435L211.79 25.4336L214.654 20.0851L215.601 20.2048L217.028 26.0958L216.112 25.98ZM214.989 21.0819L213.699 23.5513L215.609 23.7928L214.989 21.0819ZM219.885 26.5765C218.32 26.3785 217.268 24.9491 217.477 23.2894C217.686 21.6377 219.06 20.5229 220.626 20.7209C222.035 20.899 223.043 21.981 223.079 23.3933L222.164 23.2775C222.122 22.3496 221.467 21.6147 220.535 21.4969C219.424 21.3563 218.527 22.1576 218.37 23.4023C218.21 24.6626 218.879 25.6619 219.991 25.8025C220.923 25.9202 221.741 25.3635 222.012 24.4752L222.928 24.5911C222.54 25.9578 221.294 26.7546 219.885 26.5765ZM226.947 27.3501L223.542 26.9195L224.253 21.2988L225.114 21.4077L224.501 26.2534L227.045 26.5751L226.947 27.3501ZM230.288 27.7726L229.427 27.6637L230.138 22.0429L232.236 22.3082C233.527 22.4715 234.222 23.2036 234.081 24.3231C233.979 25.1294 233.392 25.6835 232.513 25.7791L233.756 28.2111L232.723 28.0804L231.589 25.7896L230.555 25.6589L230.288 27.7726ZM230.908 22.872L230.646 24.9387L231.829 25.0882C232.627 25.1891 233.126 24.8943 233.212 24.2132C233.297 23.54 232.888 23.1224 232.09 23.0215L230.908 22.872ZM236.022 28.5771C234.824 28.4256 234.128 27.4547 234.293 26.1474C234.448 24.9184 235.4 24.124 236.543 24.2685C237.78 24.4249 238.475 25.5309 238.164 26.8595L235.072 26.4686C235.027 27.3219 235.388 27.8686 236.084 27.9567C236.671 28.0309 237.119 27.7614 237.321 27.2381L238.103 27.3371C237.783 28.2351 237 28.7008 236.022 28.5771ZM236.452 24.8615C235.818 24.7813 235.33 25.1809 235.146 25.945L237.392 26.2291C237.45 25.457 237.094 24.9427 236.452 24.8615ZM242.989 27.2709C242.831 28.5234 241.997 29.3326 240.885 29.1921C240.322 29.1208 239.88 28.7786 239.646 28.24L239.366 30.4554L238.575 30.3554L239.291 24.6955L240.026 24.7886L239.93 25.5479C240.295 25.0532 240.843 24.8122 241.43 24.8865C242.534 25.026 243.148 26.0184 242.989 27.2709ZM242.167 27.167C242.285 26.2354 241.858 25.6485 241.177 25.5624C240.52 25.4793 239.937 25.9384 239.819 26.87C239.703 27.7859 240.145 28.3826 240.81 28.4667C241.491 28.5528 242.05 28.0985 242.167 27.167ZM246.041 29.7644L246.122 29.1225C245.805 29.5517 245.311 29.7516 244.7 29.6744C243.839 29.5655 243.338 29.0011 243.434 28.2417C243.537 27.4276 244.24 27.087 245.477 27.2434C245.719 27.2741 245.914 27.3067 246.246 27.3884L246.284 27.0831C246.36 26.4881 246.081 26.1109 245.533 26.0416C244.954 25.9684 244.558 26.2683 244.461 26.8446L243.741 26.7535C243.898 25.8269 244.642 25.2926 245.613 25.4154C246.638 25.545 247.16 26.1996 247.035 27.1859L246.698 29.8476L246.041 29.7644ZM244.188 28.3133C244.134 28.7438 244.419 29.0662 244.928 29.1306C245.593 29.2147 246.061 28.8523 246.141 28.2182L246.184 27.8816C245.883 27.8038 245.665 27.7683 245.461 27.7425C244.671 27.6426 244.25 27.8279 244.188 28.3133ZM249.364 24.991C249.326 25.2885 249.063 25.4858 248.726 25.4432C248.39 25.4006 248.176 25.1429 248.213 24.8455C248.252 24.5402 248.522 24.3517 248.859 24.3942C249.196 24.4368 249.403 24.6857 249.364 24.991ZM248.545 30.0811L247.755 29.9811L248.279 25.8321L249.07 25.9321L248.545 30.0811ZM250.701 28.1983L250.433 30.3198L249.642 30.2198L250.167 26.0708L250.903 26.1638L250.792 27.0406C251.154 26.5057 251.826 26.2248 252.507 26.311L252.403 27.1329C251.516 26.9731 250.817 27.2824 250.701 28.1983Z" fill="white"/>
<rect x="183.043" y="35.8181" width="67.4993" height="7.74582" rx="3.87291" transform="rotate(7.20652 183.043 35.8181)" fill="white" fill-opacity="0.57"/>
<rect x="181.789" y="45.7394" width="58.6469" height="4.42618" rx="2.21309" transform="rotate(7.20652 181.789 45.7394)" fill="#E1E7EF" fill-opacity="0.31"/>
</g>
<path d="M240.705 36.5293C240.995 36.4711 241.296 36.5007 241.57 36.6133H241.571L258.572 43.6133C258.845 43.7258 259.079 43.9164 259.244 44.1611C259.409 44.4059 259.499 44.6939 259.501 44.9893C259.503 45.2847 259.418 45.5741 259.256 45.8213C259.094 46.0684 258.863 46.2626 258.592 46.3789L252.326 49.0635C252.208 49.114 252.115 49.2084 252.064 49.3262L249.379 55.5908C249.263 55.8624 249.068 56.0941 248.821 56.2559C248.574 56.4175 248.285 56.5031 247.989 56.501C247.694 56.4988 247.406 56.4093 247.161 56.2441C246.916 56.0789 246.726 55.8445 246.613 55.5713L239.613 38.5723L239.575 38.4678C239.495 38.2228 239.479 37.9602 239.529 37.7061C239.587 37.4158 239.729 37.1488 239.938 36.9395C240.148 36.73 240.415 36.5875 240.705 36.5293Z" fill="black" stroke="white"/>
</g>
<defs>
<filter id="filter0_ddd_1074_38124" x="23" y="0.888672" width="116.839" height="90.5565" filterUnits="userSpaceOnUse" color-interpolation-filters="sRGB">
<feFlood flood-opacity="0" result="BackgroundImageFix"/>
<feColorMatrix in="SourceAlpha" type="matrix" values="0 0 0 0 0 0 0 0 0 0 0 0 0 0 0 0 0 0 127 0" result="hardAlpha"/>
<feOffset dx="2" dy="2"/>
<feGaussianBlur stdDeviation="3"/>
<feColorMatrix type="matrix" values="0 0 0 0 0 0 0 0 0 0 0 0 0 0 0 0 0 0 0.02 0"/>
<feBlend mode="normal" in2="BackgroundImageFix" result="effect1_dropShadow_1074_38124"/>
<feColorMatrix in="SourceAlpha" type="matrix" values="0 0 0 0 0 0 0 0 0 0 0 0 0 0 0 0 0 0 127 0" result="hardAlpha"/>
<feOffset dx="7" dy="8"/>
<feGaussianBlur stdDeviation="5"/>
<feColorMatrix type="matrix" values="0 0 0 0 0 0 0 0 0 0 0 0 0 0 0 0 0 0 0.02 0"/>
<feBlend mode="normal" in2="effect1_dropShadow_1074_38124" result="effect2_dropShadow_1074_38124"/>
<feColorMatrix in="SourceAlpha" type="matrix" values="0 0 0 0 0 0 0 0 0 0 0 0 0 0 0 0 0 0 127 0" result="hardAlpha"/>
<feOffset dx="15" dy="17"/>
<feGaussianBlur stdDeviation="7"/>
<feColorMatrix type="matrix" values="0 0 0 0 0 0 0 0 0 0 0 0 0 0 0 0 0 0 0.01 0"/>
<feBlend mode="normal" in2="effect2_dropShadow_1074_38124" result="effect3_dropShadow_1074_38124"/>
<feBlend mode="normal" in="SourceGraphic" in2="effect3_dropShadow_1074_38124" result="shape"/>
</filter>
<filter id="filter1_ddd_1074_38124" x="98.959" y="-3.99988" width="119.837" height="95.9062" filterUnits="userSpaceOnUse" color-interpolation-filters="sRGB">
<feFlood flood-opacity="0" result="BackgroundImageFix"/>
<feColorMatrix in="SourceAlpha" type="matrix" values="0 0 0 0 0 0 0 0 0 0 0 0 0 0 0 0 0 0 127 0" result="hardAlpha"/>
<feOffset dx="2" dy="2"/>
<feGaussianBlur stdDeviation="3"/>
<feColorMatrix type="matrix" values="0 0 0 0 0 0 0 0 0 0 0 0 0 0 0 0 0 0 0.02 0"/>
<feBlend mode="normal" in2="BackgroundImageFix" result="effect1_dropShadow_1074_38124"/>
<feColorMatrix in="SourceAlpha" type="matrix" values="0 0 0 0 0 0 0 0 0 0 0 0 0 0 0 0 0 0 127 0" result="hardAlpha"/>
<feOffset dx="7" dy="8"/>
<feGaussianBlur stdDeviation="5"/>
<feColorMatrix type="matrix" values="0 0 0 0 0 0 0 0 0 0 0 0 0 0 0 0 0 0 0.02 0"/>
<feBlend mode="normal" in2="effect1_dropShadow_1074_38124" result="effect2_dropShadow_1074_38124"/>
<feColorMatrix in="SourceAlpha" type="matrix" values="0 0 0 0 0 0 0 0 0 0 0 0 0 0 0 0 0 0 127 0" result="hardAlpha"/>
<feOffset dx="15" dy="17"/>
<feGaussianBlur stdDeviation="7"/>
<feColorMatrix type="matrix" values="0 0 0 0 0 0 0 0 0 0 0 0 0 0 0 0 0 0 0.01 0"/>
<feBlend mode="normal" in2="effect2_dropShadow_1074_38124" result="effect3_dropShadow_1074_38124"/>
<feBlend mode="normal" in="SourceGraphic" in2="effect3_dropShadow_1074_38124" result="shape"/>
</filter>
<filter id="filter2_ddd_1074_38124" x="245.84" y="6.73633" width="113.778" height="86.6047" filterUnits="userSpaceOnUse" color-interpolation-filters="sRGB">
<feFlood flood-opacity="0" result="BackgroundImageFix"/>
<feColorMatrix in="SourceAlpha" type="matrix" values="0 0 0 0 0 0 0 0 0 0 0 0 0 0 0 0 0 0 127 0" result="hardAlpha"/>
<feOffset dx="2" dy="2"/>
<feGaussianBlur stdDeviation="3"/>
<feColorMatrix type="matrix" values="0 0 0 0 0 0 0 0 0 0 0 0 0 0 0 0 0 0 0.02 0"/>
<feBlend mode="normal" in2="BackgroundImageFix" result="effect1_dropShadow_1074_38124"/>
<feColorMatrix in="SourceAlpha" type="matrix" values="0 0 0 0 0 0 0 0 0 0 0 0 0 0 0 0 0 0 127 0" result="hardAlpha"/>
<feOffset dx="7" dy="8"/>
<feGaussianBlur stdDeviation="5"/>
<feColorMatrix type="matrix" values="0 0 0 0 0 0 0 0 0 0 0 0 0 0 0 0 0 0 0.02 0"/>
<feBlend mode="normal" in2="effect1_dropShadow_1074_38124" result="effect2_dropShadow_1074_38124"/>
<feColorMatrix in="SourceAlpha" type="matrix" values="0 0 0 0 0 0 0 0 0 0 0 0 0 0 0 0 0 0 127 0" result="hardAlpha"/>
<feOffset dx="15" dy="17"/>
<feGaussianBlur stdDeviation="7"/>
<feColorMatrix type="matrix" values="0 0 0 0 0 0 0 0 0 0 0 0 0 0 0 0 0 0 0.01 0"/>
<feBlend mode="normal" in2="effect2_dropShadow_1074_38124" result="effect3_dropShadow_1074_38124"/>
<feBlend mode="normal" in="SourceGraphic" in2="effect3_dropShadow_1074_38124" result="shape"/>
</filter>
<filter id="filter3_ddd_1074_38124" x="169.958" y="-0.34375" width="119.475" height="95.2325" filterUnits="userSpaceOnUse" color-interpolation-filters="sRGB">
<feFlood flood-opacity="0" result="BackgroundImageFix"/>
<feColorMatrix in="SourceAlpha" type="matrix" values="0 0 0 0 0 0 0 0 0 0 0 0 0 0 0 0 0 0 127 0" result="hardAlpha"/>
<feOffset dx="2" dy="2"/>
<feGaussianBlur stdDeviation="3"/>
<feColorMatrix type="matrix" values="0 0 0 0 0 0 0 0 0 0 0 0 0 0 0 0 0 0 0.02 0"/>
<feBlend mode="normal" in2="BackgroundImageFix" result="effect1_dropShadow_1074_38124"/>
<feColorMatrix in="SourceAlpha" type="matrix" values="0 0 0 0 0 0 0 0 0 0 0 0 0 0 0 0 0 0 127 0" result="hardAlpha"/>
<feOffset dx="7" dy="8"/>
<feGaussianBlur stdDeviation="5"/>
<feColorMatrix type="matrix" values="0 0 0 0 0 0 0 0 0 0 0 0 0 0 0 0 0 0 0.02 0"/>
<feBlend mode="normal" in2="effect1_dropShadow_1074_38124" result="effect2_dropShadow_1074_38124"/>
<feColorMatrix in="SourceAlpha" type="matrix" values="0 0 0 0 0 0 0 0 0 0 0 0 0 0 0 0 0 0 127 0" result="hardAlpha"/>
<feOffset dx="15" dy="17"/>
<feGaussianBlur stdDeviation="7"/>
<feColorMatrix type="matrix" values="0 0 0 0 0 0 0 0 0 0 0 0 0 0 0 0 0 0 0.01 0"/>
<feBlend mode="normal" in2="effect2_dropShadow_1074_38124" result="effect3_dropShadow_1074_38124"/>
<feBlend mode="normal" in="SourceGraphic" in2="effect3_dropShadow_1074_38124" result="shape"/>
</filter>
<clipPath id="clip0_1074_38124">
<rect width="357" height="68" fill="white"/>
</clipPath>
<clipPath id="clip1_1074_38124">
<rect width="10.1452" height="10.1452" fill="white" transform="translate(41.4263 15.2069) rotate(3.6636)"/>
</clipPath>
<clipPath id="clip2_1074_38124">
<rect width="10.1452" height="10.1452" fill="white" transform="translate(115.977 18.7693) rotate(-7.73149)"/>
</clipPath>
<clipPath id="clip3_1074_38124">
<rect width="10.1452" height="10.1452" fill="white" transform="translate(261.676 20.3179)"/>
</clipPath>
<clipPath id="clip4_1074_38124">
<rect width="10.1452" height="10.1452" fill="white" transform="translate(190.833 14.6469) rotate(7.20652)"/>
</clipPath>
</defs>
</svg>
