<svg width="357" height="68" viewBox="0 0 357 68" fill="none" xmlns="http://www.w3.org/2000/svg">
<g clip-path="url(#clip0_1074_38187)">
<path d="M113.749 26.979H244.25C248.027 26.979 251.089 30.0411 251.089 33.8179V59.0298C251.089 62.8068 248.027 65.8687 244.25 65.8687H113.749C109.972 65.8684 106.91 62.8066 106.91 59.0298V33.8179C106.91 30.0412 109.972 26.9793 113.749 26.979Z" fill="#FDFDFC"/>
<path d="M113.749 26.979H244.25C248.027 26.979 251.089 30.0411 251.089 33.8179V59.0298C251.089 62.8068 248.027 65.8687 244.25 65.8687H113.749C109.972 65.8684 106.91 62.8066 106.91 59.0298V33.8179C106.91 30.0412 109.972 26.9793 113.749 26.979Z" stroke="#F0EFEF" stroke-width="0.594685"/>
<rect x="114.195" y="36.1657" width="20.5166" height="20.5166" rx="3.1221" stroke="#F0EFEF" stroke-width="0.892027"/>
<g clip-path="url(#clip1_1074_38187)">
<path fill-rule="evenodd" clip-rule="evenodd" d="M124.453 42.4098C123.862 42.4098 123.294 42.6448 122.876 43.063C122.458 43.4812 122.223 44.0485 122.223 44.6399C122.223 45.3003 122.584 46.0322 123.084 46.7131C123.562 47.3632 124.121 47.9058 124.453 48.2062C124.786 47.9059 125.344 47.3633 125.822 46.7131C126.322 46.0323 126.683 45.3003 126.683 44.6399C126.683 44.0485 126.448 43.4812 126.03 43.063C125.612 42.6448 125.045 42.4098 124.453 42.4098ZM122.245 42.4323C122.831 41.8468 123.625 41.5178 124.453 41.5178C125.281 41.5178 126.075 41.8468 126.661 42.4323C127.246 43.0178 127.575 43.8119 127.575 44.6399C127.575 45.591 127.074 46.5157 126.541 47.2411C125.999 47.9792 125.372 48.5802 125.022 48.8947C125.013 48.9025 125.004 48.91 124.995 48.9171C124.839 49.0358 124.649 49.1002 124.453 49.1002C124.257 49.1002 124.067 49.0358 123.912 48.9171C123.902 48.9099 123.893 48.9025 123.885 48.8946C123.534 48.5802 122.908 47.9792 122.366 47.2411C121.833 46.5157 121.331 45.591 121.331 44.6399C121.331 43.8119 121.66 43.0178 122.245 42.4323Z" fill="#979694"/>
<path fill-rule="evenodd" clip-rule="evenodd" d="M124.453 44.1938C124.207 44.1938 124.007 44.3935 124.007 44.6398C124.007 44.8861 124.207 45.0858 124.453 45.0858C124.7 45.0858 124.899 44.8861 124.899 44.6398C124.899 44.3935 124.7 44.1938 124.453 44.1938ZM123.115 44.6398C123.115 43.9008 123.714 43.3018 124.453 43.3018C125.192 43.3018 125.791 43.9008 125.791 44.6398C125.791 45.3788 125.192 45.9778 124.453 45.9778C123.714 45.9778 123.115 45.3788 123.115 44.6398Z" fill="#979694"/>
<path fill-rule="evenodd" clip-rule="evenodd" d="M121.333 46.8699L122.988 46.8699C123.234 46.8699 123.434 47.0696 123.434 47.3159C123.434 47.5622 123.234 47.7619 122.988 47.7619L121.333 47.7619L120.439 50.438L128.467 50.438L127.575 47.762L127.575 47.7619H125.919C125.673 47.7619 125.473 47.5622 125.473 47.3159C125.473 47.0696 125.673 46.8699 125.919 46.8699L127.575 46.8699C127.575 46.8699 127.575 46.8699 127.575 46.8699C127.762 46.8699 127.945 46.9288 128.097 47.0383C128.249 47.1478 128.362 47.3023 128.421 47.48L129.313 50.1561C129.358 50.2901 129.37 50.4328 129.349 50.5725C129.328 50.7122 129.273 50.8447 129.191 50.9594C129.108 51.074 129 51.1674 128.874 51.2318C128.748 51.2962 128.609 51.3299 128.468 51.33H120.439C120.298 51.3299 120.158 51.2963 120.032 51.2318C119.907 51.1673 119.798 51.0738 119.715 50.9591C119.633 50.8444 119.579 50.7116 119.557 50.5719C119.536 50.4321 119.549 50.2894 119.593 50.1553C119.593 50.1553 119.593 50.1552 119.593 50.1552L120.487 47.4791C120.546 47.3017 120.66 47.1475 120.812 47.0381C120.964 46.9288 121.146 46.87 121.333 46.8699Z" fill="#979694"/>
</g>
<rect x="142.294" y="38.8132" width="101.575" height="8.17274" rx="4.08637" fill="#DEECFF"/>
<rect x="142.294" y="49.3647" width="87.565" height="4.67014" rx="2.33507" fill="#E1E7EF" fill-opacity="0.8"/>
<path d="M100.402 18.6094H257.598C262.147 18.6094 265.836 22.2972 265.836 26.8467V52.6348C265.836 57.1843 262.147 60.8721 257.598 60.8721H100.402C95.8529 60.872 92.1651 57.1842 92.165 52.6348V26.8467C92.1651 22.2973 95.8529 18.6095 100.402 18.6094Z" fill="#FDFDFC"/>
<path d="M100.402 18.6094H257.598C262.147 18.6094 265.836 22.2972 265.836 26.8467V52.6348C265.836 57.1843 262.147 60.8721 257.598 60.8721H100.402C95.8529 60.872 92.1651 57.1842 92.165 52.6348V26.8467C92.1651 22.2973 95.8529 18.6095 100.402 18.6094Z" stroke="#F0EFEF" stroke-width="0.716325"/>
<rect x="100.94" y="27.3842" width="24.7132" height="24.7132" rx="3.76071" stroke="#F0EFEF" stroke-width="1.07449"/>
<g clip-path="url(#clip2_1074_38187)">
<path fill-rule="evenodd" clip-rule="evenodd" d="M113.296 34.9058C112.583 34.9058 111.9 35.1888 111.396 35.6926C110.893 36.1963 110.61 36.8796 110.61 37.592C110.61 38.3874 111.045 39.2691 111.647 40.0892C112.222 40.8723 112.895 41.5259 113.296 41.8878C113.697 41.526 114.369 40.8724 114.945 40.0892C115.547 39.2692 115.982 38.3875 115.982 37.592C115.982 36.8796 115.699 36.1963 115.195 35.6926C114.692 35.1888 114.008 34.9058 113.296 34.9058ZM110.637 34.9328C111.342 34.2275 112.298 33.8313 113.296 33.8313C114.293 33.8313 115.25 34.2275 115.955 34.9328C116.66 35.6381 117.057 36.5946 117.057 37.592C117.057 38.7376 116.452 39.8515 115.811 40.7252C115.158 41.6143 114.403 42.3383 113.981 42.7171C113.97 42.7265 113.959 42.7355 113.948 42.744C113.761 42.8871 113.532 42.9646 113.296 42.9646C113.06 42.9646 112.831 42.8871 112.644 42.744C112.632 42.7354 112.622 42.7264 112.611 42.717C112.189 42.3383 111.434 41.6143 110.781 40.7253C110.139 39.8515 109.535 38.7377 109.535 37.592C109.535 36.5946 109.931 35.6381 110.637 34.9328Z" fill="#979694"/>
<path fill-rule="evenodd" clip-rule="evenodd" d="M113.296 37.0547C112.999 37.0547 112.759 37.2952 112.759 37.592C112.759 37.8887 112.999 38.1292 113.296 38.1292C113.593 38.1292 113.833 37.8887 113.833 37.592C113.833 37.2952 113.593 37.0547 113.296 37.0547ZM111.684 37.592C111.684 36.7018 112.406 35.9802 113.296 35.9802C114.186 35.9802 114.908 36.7018 114.908 37.592C114.908 38.4821 114.186 39.2037 113.296 39.2037C112.406 39.2037 111.684 38.4821 111.684 37.592Z" fill="#979694"/>
<path fill-rule="evenodd" clip-rule="evenodd" d="M109.537 40.2781L111.531 40.2781C111.827 40.2781 112.068 40.5186 112.068 40.8153C112.068 41.112 111.827 41.3526 111.531 41.3526L109.538 41.3526L108.461 44.576H118.131L117.057 41.3527L117.056 41.3526H115.062C114.765 41.3526 114.525 41.112 114.525 40.8153C114.525 40.5186 114.765 40.2781 115.062 40.2781L117.056 40.2781C117.056 40.2781 117.056 40.2781 117.056 40.2781C117.282 40.278 117.502 40.349 117.685 40.4809C117.868 40.6128 118.005 40.799 118.076 41.013L119.15 44.2365C119.204 44.3979 119.219 44.5698 119.193 44.7381C119.167 44.9063 119.102 45.066 119.003 45.2041C118.903 45.3421 118.773 45.4546 118.621 45.5322C118.47 45.6098 118.302 45.6504 118.132 45.6505H108.461C108.29 45.6504 108.123 45.6099 107.971 45.5322C107.82 45.4545 107.689 45.342 107.589 45.2037C107.49 45.0655 107.424 44.9057 107.399 44.7373C107.373 44.569 107.388 44.397 107.442 44.2355C107.442 44.2355 107.442 44.2355 107.442 44.2354L108.519 41.012C108.59 40.7983 108.727 40.6125 108.91 40.4808C109.093 40.3491 109.312 40.2782 109.537 40.2781Z" fill="#979694"/>
</g>
<rect x="134.786" y="30.5732" width="122.352" height="9.84443" rx="4.92222" fill="#DEECFF"/>
<rect x="134.786" y="43.283" width="105.476" height="5.62539" rx="2.8127" fill="#E1E7EF" fill-opacity="0.8"/>
<g filter="url(#filter0_ddd_1074_38187)">
<path d="M77 12.5771C77 7.02351 81.502 2.52148 87.0556 2.52148H270.944C276.498 2.52148 281 7.02352 281 12.5771V42.7438C281 48.2974 276.498 52.7994 270.944 52.7994H87.0556C81.502 52.7994 77 48.2973 77 42.7438V12.5771Z" fill="#FDFDFC"/>
<path d="M87.0557 2.94043H270.944C276.266 2.94043 280.581 7.255 280.581 12.5771V42.7441C280.581 48.0661 276.266 52.3809 270.944 52.3809H87.0557C81.7336 52.3809 77.4191 48.0661 77.4189 42.7441V12.5771C77.4189 7.255 81.7335 2.94043 87.0557 2.94043Z" stroke="#F0EFEF" stroke-width="0.837965"/>
<rect x="87.0557" y="12.5771" width="30.1667" height="30.1667" rx="5.02779" fill="#E4F28A"/>
<g clip-path="url(#clip3_1074_38187)">
<path fill-rule="evenodd" clip-rule="evenodd" d="M102.139 22.0043C101.306 22.0043 100.506 22.3353 99.9171 22.9246C99.3278 23.5139 98.9967 24.3132 98.9967 25.1466C98.9967 26.0771 99.5058 27.1086 100.21 28.0679C100.883 28.984 101.67 29.7486 102.139 30.1719C102.608 29.7487 103.395 28.9841 104.068 28.0679C104.772 27.1086 105.281 26.0772 105.281 25.1466C105.281 24.3132 104.95 23.5139 104.361 22.9246C103.772 22.3353 102.972 22.0043 102.139 22.0043ZM99.0283 22.0358C99.8533 21.2108 100.972 20.7473 102.139 20.7473C103.306 20.7473 104.425 21.2108 105.25 22.0358C106.075 22.8609 106.538 23.9799 106.538 25.1466C106.538 26.4868 105.832 27.7898 105.081 28.8119C104.317 29.8519 103.434 30.6989 102.94 31.1421C102.928 31.153 102.915 31.1635 102.902 31.1735C102.683 31.3409 102.415 31.4316 102.139 31.4316C101.863 31.4316 101.595 31.3409 101.376 31.1735C101.363 31.1635 101.35 31.1529 101.338 31.1419C100.844 30.6989 99.9613 29.8519 99.1974 28.812C98.4467 27.7898 97.7397 26.4868 97.7397 25.1466C97.7397 23.9799 98.2032 22.8609 99.0283 22.0358Z" fill="#1C1C1C"/>
<path fill-rule="evenodd" clip-rule="evenodd" d="M102.139 24.5182C101.792 24.5182 101.51 24.7996 101.51 25.1467C101.51 25.4937 101.792 25.7751 102.139 25.7751C102.486 25.7751 102.767 25.4937 102.767 25.1467C102.767 24.7996 102.486 24.5182 102.139 24.5182ZM100.253 25.1467C100.253 24.1054 101.098 23.2612 102.139 23.2612C103.18 23.2612 104.024 24.1054 104.024 25.1467C104.024 26.1879 103.18 27.0321 102.139 27.0321C101.098 27.0321 100.253 26.1879 100.253 25.1467Z" fill="#1C1C1C"/>
<path fill-rule="evenodd" clip-rule="evenodd" d="M97.7419 28.2891L100.074 28.2891C100.421 28.2891 100.702 28.5704 100.702 28.9175C100.702 29.2646 100.421 29.546 100.074 29.546L97.7425 29.546L96.483 33.3169L107.795 33.3169L106.538 29.5462L106.538 29.546H104.205C103.858 29.546 103.576 29.2646 103.576 28.9175C103.576 28.5704 103.858 28.2891 104.205 28.2891L106.538 28.2891C106.538 28.2891 106.538 28.2891 106.538 28.2891C106.802 28.289 107.059 28.372 107.273 28.5263C107.487 28.6806 107.647 28.8984 107.73 29.1488L108.987 32.9197C109.05 33.1085 109.067 33.3096 109.037 33.5064C109.007 33.7032 108.931 33.89 108.815 34.0515C108.698 34.213 108.545 34.3446 108.368 34.4354C108.191 34.5262 107.995 34.5736 107.796 34.5738H96.4825C96.2833 34.5737 96.0869 34.5263 95.9097 34.4354C95.7324 34.3445 95.5793 34.2128 95.4629 34.0512C95.3465 33.8895 95.2702 33.7025 95.2403 33.5055C95.2104 33.3086 95.2277 33.1074 95.2909 32.9185C95.2909 32.9185 95.2909 32.9184 95.2909 32.9184L96.5504 29.1476C96.6339 28.8976 96.7939 28.6802 97.0077 28.5262C97.2216 28.3721 97.4784 28.2892 97.7419 28.2891Z" fill="#1C1C1C"/>
</g>
<rect x="127.278" y="16.936" width="143.129" height="11.5161" rx="5.75806" fill="#DEECFF"/>
<rect x="127.278" y="31.804" width="123.387" height="6.58065" rx="3.29032" fill="#E1E7EF" fill-opacity="0.8"/>
</g>
</g>
<defs>
<filter id="filter0_ddd_1074_38187" x="70.4194" y="-4.05916" width="258.29" height="107.858" filterUnits="userSpaceOnUse" color-interpolation-filters="sRGB">
<feFlood flood-opacity="0" result="BackgroundImageFix"/>
<feColorMatrix in="SourceAlpha" type="matrix" values="0 0 0 0 0 0 0 0 0 0 0 0 0 0 0 0 0 0 127 0" result="hardAlpha"/>
<feOffset dx="3.29032" dy="3.29032"/>
<feGaussianBlur stdDeviation="4.93548"/>
<feColorMatrix type="matrix" values="0 0 0 0 0 0 0 0 0 0 0 0 0 0 0 0 0 0 0.02 0"/>
<feBlend mode="normal" in2="BackgroundImageFix" result="effect1_dropShadow_1074_38187"/>
<feColorMatrix in="SourceAlpha" type="matrix" values="0 0 0 0 0 0 0 0 0 0 0 0 0 0 0 0 0 0 127 0" result="hardAlpha"/>
<feOffset dx="11.5161" dy="13.1613"/>
<feGaussianBlur stdDeviation="8.22581"/>
<feColorMatrix type="matrix" values="0 0 0 0 0 0 0 0 0 0 0 0 0 0 0 0 0 0 0.02 0"/>
<feBlend mode="normal" in2="effect1_dropShadow_1074_38187" result="effect2_dropShadow_1074_38187"/>
<feColorMatrix in="SourceAlpha" type="matrix" values="0 0 0 0 0 0 0 0 0 0 0 0 0 0 0 0 0 0 127 0" result="hardAlpha"/>
<feOffset dx="24.6774" dy="27.9677"/>
<feGaussianBlur stdDeviation="11.5161"/>
<feColorMatrix type="matrix" values="0 0 0 0 0 0 0 0 0 0 0 0 0 0 0 0 0 0 0.01 0"/>
<feBlend mode="normal" in2="effect2_dropShadow_1074_38187" result="effect3_dropShadow_1074_38187"/>
<feBlend mode="normal" in="SourceGraphic" in2="effect3_dropShadow_1074_38187" result="shape"/>
</filter>
<clipPath id="clip0_1074_38187">
<rect width="357" height="68" fill="white"/>
</clipPath>
<clipPath id="clip1_1074_38187">
<rect width="10.7043" height="10.7043" fill="white" transform="translate(119.101 41.0718)"/>
</clipPath>
<clipPath id="clip2_1074_38187">
<rect width="12.8938" height="12.8938" fill="white" transform="translate(106.849 33.2939)"/>
</clipPath>
<clipPath id="clip3_1074_38187">
<rect width="15.0834" height="15.0834" fill="white" transform="translate(94.5972 20.1189)"/>
</clipPath>
</defs>
</svg>
