<svg width="327" height="68" viewBox="0 0 327 68" fill="none" xmlns="http://www.w3.org/2000/svg">
<g filter="url(#filter0_f_1074_38067)">
<path d="M174.976 40.51C174.391 36.3447 177.321 32.7896 181.522 32.5694L311.603 25.7521C315.804 25.532 319.683 28.7302 320.269 32.8956L323.435 55.4218C324.02 59.5871 321.089 63.1423 316.889 63.3624L186.807 70.1797C182.607 70.3998 178.727 67.2016 178.142 63.0363L174.976 40.51Z" fill="#FDFDFC"/>
<path d="M181.566 32.8837L311.647 26.0664C315.673 25.8555 319.391 28.9205 319.952 32.9122L323.118 55.4379C323.679 59.4297 320.87 62.8368 316.845 63.0477L186.763 69.865C182.738 70.076 179.02 67.011 178.459 63.0192L175.293 40.4935C174.732 36.5017 177.54 33.0947 181.566 32.8837Z" stroke="#F0EFEF" stroke-width="0.634677"/>
<rect x="0.541603" y="0.446463" width="21.8964" height="21.8964" rx="3.33205" transform="matrix(0.99863 -0.052336 0.139173 0.990268 182.513 40.0942)" stroke="#F0EFEF" stroke-width="0.952016"/>
<g clip-path="url(#clip0_1074_38067)">
<path fill-rule="evenodd" clip-rule="evenodd" d="M195.109 47.477C195.372 47.4633 195.614 47.6632 195.651 47.9235L195.916 49.809C195.952 50.0693 195.769 50.2915 195.507 50.3053C195.244 50.3191 195.002 50.1192 194.965 49.8588L194.7 47.9733C194.663 47.713 194.847 47.4908 195.109 47.477Z" fill="#979694"/>
<path fill-rule="evenodd" clip-rule="evenodd" d="M194.28 51.7941C194.243 51.5338 194.426 51.3116 194.689 51.2978L196.59 51.1982C196.853 51.1844 197.095 51.3843 197.132 51.6447C197.168 51.905 196.985 52.1272 196.723 52.1409L194.821 52.2406C194.559 52.2544 194.316 52.0545 194.28 51.7941Z" fill="#979694"/>
<path fill-rule="evenodd" clip-rule="evenodd" d="M194.544 53.6796C194.508 53.4193 194.691 53.1971 194.953 53.1833L196.855 53.0837C197.117 53.0699 197.36 53.2698 197.396 53.5302C197.433 53.7905 197.25 54.0127 196.987 54.0264L195.086 54.1261C194.823 54.1398 194.581 53.94 194.544 53.6796Z" fill="#979694"/>
<path fill-rule="evenodd" clip-rule="evenodd" d="M193.882 48.9659C193.845 48.7055 194.028 48.4834 194.291 48.4696L196.192 48.3699C196.455 48.3562 196.697 48.5561 196.734 48.8164C196.77 49.0767 196.587 49.2989 196.325 49.3127L194.423 49.4123C194.161 49.4261 193.918 49.2262 193.882 48.9659Z" fill="#979694"/>
<path fill-rule="evenodd" clip-rule="evenodd" d="M191.638 50.0332C191.512 50.0398 191.398 50.0958 191.321 50.1889C191.244 50.2819 191.211 50.4044 191.229 50.5295L191.825 54.7718C191.842 54.8969 191.909 55.0141 192.011 55.0979C192.112 55.1816 192.24 55.2249 192.366 55.2183L199.972 54.8197C200.098 54.8131 200.212 54.7571 200.289 54.664C200.366 54.571 200.399 54.4484 200.381 54.3234L199.984 51.4952C199.966 51.3702 199.899 51.2529 199.798 51.1692C199.696 51.0854 199.568 51.0421 199.442 51.0487L198.491 51.0985C198.229 51.1123 197.986 50.9124 197.95 50.6521C197.913 50.3917 198.096 50.1695 198.359 50.1558L199.31 50.106C199.688 50.0861 200.071 50.2161 200.376 50.4673C200.681 50.7185 200.882 51.0703 200.934 51.4453L201.332 54.2736C201.385 54.6486 201.285 55.0162 201.055 55.2954C200.825 55.5746 200.483 55.7426 200.105 55.7625L192.499 56.1611C192.121 56.1809 191.737 56.0509 191.432 55.7997C191.128 55.5485 190.927 55.1967 190.874 54.8217L190.278 50.5793C190.225 50.2042 190.325 49.8367 190.555 49.5575C190.785 49.2782 191.127 49.1102 191.505 49.0904L192.456 49.0406C192.718 49.0268 192.961 49.2267 192.997 49.4871C193.034 49.7474 192.851 49.9696 192.588 49.9834L191.638 50.0332Z" fill="#979694"/>
<path fill-rule="evenodd" clip-rule="evenodd" d="M191.992 46.1582C192.223 45.879 192.564 45.711 192.943 45.6911L196.746 45.4918C197.124 45.472 197.507 45.602 197.812 45.8532C198.117 46.1044 198.318 46.4562 198.37 46.8312L199.563 55.316C199.599 55.5763 199.416 55.7985 199.154 55.8123C198.891 55.826 198.649 55.6261 198.612 55.3658L197.42 46.881C197.402 46.756 197.335 46.6388 197.234 46.555C197.132 46.4713 197.004 46.428 196.878 46.4346L193.075 46.6339C192.949 46.6405 192.835 46.6965 192.758 46.7896C192.682 46.8826 192.648 47.0052 192.666 47.1302L193.859 55.6149C193.895 55.8753 193.712 56.0975 193.449 56.1112C193.187 56.125 192.944 55.9251 192.908 55.6648L191.715 47.18C191.663 46.8049 191.762 46.4374 191.992 46.1582Z" fill="#979694"/>
</g>
<rect width="99.9163" height="8.76459" rx="4.38229" transform="matrix(0.99863 -0.052336 0.139173 0.990268 213.435 41.5797)" fill="#DEECFF"/>
<rect width="85.893" height="5.25875" rx="2.62938" transform="matrix(0.99863 -0.052336 0.139173 0.990268 215.008 52.7728)" fill="#E1E7EF" fill-opacity="0.8"/>
</g>
<path d="M7.64994 7.53019L137.731 0.712925C141.757 0.501959 145.475 3.56695 146.036 7.55873L149.202 30.0844C149.763 34.0762 146.954 37.4833 142.929 37.6942L12.8473 44.5115C8.82184 44.7225 5.10371 41.6575 4.5427 37.6657L1.37692 15.14C0.815912 11.1482 3.62446 7.74116 7.64994 7.53019Z" fill="#FDFDFC"/>
<path d="M7.64994 7.53019L137.731 0.712925C141.757 0.501959 145.475 3.56695 146.036 7.55873L149.202 30.0844C149.763 34.0762 146.954 37.4833 142.929 37.6942L12.8473 44.5115C8.82184 44.7225 5.10371 41.6575 4.5427 37.6657L1.37692 15.14C0.815912 11.1482 3.62446 7.74116 7.64994 7.53019Z" stroke="#F0EFEF" stroke-width="0.634677"/>
<rect x="0.541603" y="0.446463" width="21.8964" height="21.8964" rx="3.33205" transform="matrix(0.99863 -0.052336 0.139173 0.990268 8.5973 14.7407)" fill="#FE7B5D"/>
<rect x="0.541603" y="0.446463" width="21.8964" height="21.8964" rx="3.33205" transform="matrix(0.99863 -0.052336 0.139173 0.990268 8.5973 14.7407)" stroke="#F0EFEF" stroke-width="0.952016"/>
<g clip-path="url(#clip1_1074_38067)">
<path fill-rule="evenodd" clip-rule="evenodd" d="M21.1931 22.1235C21.4557 22.1098 21.6981 22.3097 21.7347 22.57L21.9997 24.4555C22.0363 24.7158 21.8531 24.938 21.5906 24.9518C21.3281 24.9655 21.0856 24.7656 21.049 24.5053L20.784 22.6198C20.7474 22.3595 20.9306 22.1373 21.1931 22.1235Z" fill="white"/>
<path fill-rule="evenodd" clip-rule="evenodd" d="M20.3636 26.4406C20.327 26.1803 20.5102 25.9581 20.7727 25.9443L22.6741 25.8447C22.9367 25.8309 23.1792 26.0308 23.2157 26.2911C23.2523 26.5515 23.0692 26.7737 22.8066 26.7874L20.9052 26.8871C20.6427 26.9008 20.4002 26.7009 20.3636 26.4406Z" fill="white"/>
<path fill-rule="evenodd" clip-rule="evenodd" d="M20.6283 28.3261C20.5917 28.0658 20.7748 27.8436 21.0374 27.8298L22.9388 27.7302C23.2013 27.7164 23.4438 27.9163 23.4804 28.1766C23.517 28.437 23.3338 28.6592 23.0713 28.6729L21.1699 28.7726C20.9073 28.7863 20.6648 28.5864 20.6283 28.3261Z" fill="white"/>
<path fill-rule="evenodd" clip-rule="evenodd" d="M19.9657 23.6124C19.9291 23.352 20.1122 23.1298 20.3748 23.1161L22.2762 23.0164C22.5387 23.0027 22.7812 23.2026 22.8178 23.4629C22.8544 23.7232 22.6712 23.9454 22.4087 23.9592L20.5073 24.0588C20.2447 24.0726 20.0022 23.8727 19.9657 23.6124Z" fill="white"/>
<path fill-rule="evenodd" clip-rule="evenodd" d="M17.7216 24.6797C17.5956 24.6863 17.4816 24.7423 17.4049 24.8353C17.3282 24.9284 17.295 25.0509 17.3125 25.1759L17.9088 29.4183C17.9263 29.5433 17.9933 29.6606 18.0948 29.7443C18.1964 29.8281 18.3243 29.8714 18.4504 29.8648L26.0561 29.4662C26.1821 29.4596 26.2961 29.4036 26.3728 29.3105C26.4495 29.2174 26.4827 29.0949 26.4652 28.9699L26.0677 26.1417C26.0501 26.0166 25.9832 25.8994 25.8816 25.8156C25.78 25.7319 25.6521 25.6886 25.5261 25.6952L24.5754 25.745C24.3128 25.7588 24.0704 25.5589 24.0338 25.2985C23.9972 25.0382 24.1803 24.816 24.4429 24.8023L25.3936 24.7524C25.7718 24.7326 26.1555 24.8626 26.4602 25.1138C26.7649 25.365 26.9657 25.7168 27.0184 26.0918L27.4159 28.9201C27.4686 29.2951 27.3689 29.6627 27.1387 29.9419C26.9086 30.2211 26.5668 30.3891 26.1886 30.4089L18.5829 30.8075C18.2046 30.8274 17.821 30.6974 17.5163 30.4462C17.2116 30.195 17.0108 29.8432 16.9581 29.4681L16.3618 25.2258C16.3091 24.8507 16.4088 24.4832 16.639 24.2039C16.8691 23.9247 17.2109 23.7567 17.5892 23.7369L18.5399 23.6871C18.8024 23.6733 19.0449 23.8732 19.0815 24.1335C19.1181 24.3939 18.9349 24.6161 18.6724 24.6298L17.7216 24.6797Z" fill="white"/>
<path fill-rule="evenodd" clip-rule="evenodd" d="M18.0765 20.8047C18.3066 20.5254 18.6484 20.3574 19.0267 20.3376L22.8295 20.1383C23.2077 20.1185 23.5914 20.2485 23.8961 20.4997C24.2008 20.7508 24.4016 21.1027 24.4543 21.4777L25.6468 29.9625C25.6833 30.2228 25.5002 30.445 25.2377 30.4588C24.9751 30.4725 24.7326 30.2726 24.696 30.0123L23.5036 21.5275C23.486 21.4025 23.4191 21.2852 23.3175 21.2015C23.216 21.1178 23.0881 21.0745 22.962 21.0811L19.1591 21.2804C19.0331 21.287 18.9191 21.343 18.8424 21.436C18.7657 21.5291 18.7325 21.6516 18.75 21.7767L19.9425 30.2614C19.9791 30.5217 19.7959 30.7439 19.5334 30.7577C19.2709 30.7715 19.0284 30.5716 18.9918 30.3112L17.7993 21.8265C17.7466 21.4514 17.8463 21.0839 18.0765 20.8047Z" fill="white"/>
</g>
<rect width="99.9163" height="8.76459" rx="4.38229" transform="matrix(0.99863 -0.052336 0.139173 0.990268 39.519 16.2262)" fill="#DEECFF"/>
<rect width="85.893" height="5.25875" rx="2.62938" transform="matrix(0.99863 -0.052336 0.139173 0.990268 41.0923 27.4194)" fill="#E1E7EF" fill-opacity="0.8"/>
<g filter="url(#filter1_dddd_1074_38067)">
<path d="M85.7084 29.721C85.123 25.5556 88.0536 22.0005 92.2541 21.7804L222.336 14.9631C226.536 14.7429 230.416 17.9412 231.001 22.1065L234.167 44.6327C234.752 48.7981 231.822 52.3532 227.621 52.5733L97.5399 59.3906C93.3394 59.6108 89.4597 56.4125 88.8743 52.2472L85.7084 29.721Z" fill="#FDFDFC"/>
<path d="M92.2984 22.0946L222.38 15.2774C226.405 15.0664 230.123 18.1314 230.684 22.1232L233.85 44.6489C234.411 48.6407 231.602 52.0477 227.577 52.2587L97.4958 59.0759C93.4703 59.2869 89.7521 56.2219 89.1911 52.2301L86.0254 29.7044C85.4643 25.7127 88.2729 22.3056 92.2984 22.0946Z" stroke="#F0EFEF" stroke-width="0.634677"/>
<rect width="22.8484" height="22.8484" rx="3.80806" transform="matrix(0.99863 -0.052336 0.139173 0.990268 93.3071 29.2725)" fill="#027938"/>
<g clip-path="url(#clip2_1074_38067)">
<path fill-rule="evenodd" clip-rule="evenodd" d="M105.842 36.688C106.104 36.6742 106.347 36.8741 106.383 37.1344L106.648 39.0199C106.685 39.2803 106.502 39.5025 106.239 39.5162C105.977 39.53 105.734 39.3301 105.697 39.0698L105.432 37.1843C105.396 36.9239 105.579 36.7017 105.842 36.688Z" fill="white"/>
<path fill-rule="evenodd" clip-rule="evenodd" d="M105.012 41.0051C104.975 40.7447 105.159 40.5225 105.421 40.5088L107.323 40.4091C107.585 40.3954 107.828 40.5953 107.864 40.8556C107.901 41.1159 107.718 41.3381 107.455 41.3519L105.554 41.4515C105.291 41.4653 105.049 41.2654 105.012 41.0051Z" fill="white"/>
<path fill-rule="evenodd" clip-rule="evenodd" d="M105.277 42.8906C105.24 42.6302 105.423 42.408 105.686 42.3943L107.587 42.2946C107.85 42.2809 108.092 42.4808 108.129 42.7411C108.165 43.0014 107.982 43.2236 107.72 43.2374L105.818 43.337C105.556 43.3508 105.313 43.1509 105.277 42.8906Z" fill="white"/>
<path fill-rule="evenodd" clip-rule="evenodd" d="M104.614 38.1768C104.578 37.9165 104.761 37.6943 105.023 37.6805L106.925 37.5809C107.187 37.5671 107.43 37.767 107.466 38.0273C107.503 38.2877 107.32 38.5099 107.057 38.5236L105.156 38.6233C104.893 38.637 104.651 38.4372 104.614 38.1768Z" fill="white"/>
<path fill-rule="evenodd" clip-rule="evenodd" d="M102.37 39.2441C102.244 39.2507 102.13 39.3067 102.053 39.3998C101.977 39.4929 101.943 39.6154 101.961 39.7404L102.557 43.9828C102.575 44.1078 102.642 44.2251 102.743 44.3088C102.845 44.3925 102.973 44.4358 103.099 44.4292L110.704 44.0306C110.831 44.024 110.944 43.968 111.021 43.875C111.098 43.7819 111.131 43.6594 111.114 43.5344L110.716 40.7061C110.699 40.5811 110.632 40.4638 110.53 40.3801C110.428 40.2964 110.301 40.253 110.175 40.2596L109.224 40.3095C108.961 40.3232 108.719 40.1233 108.682 39.863C108.646 39.6027 108.829 39.3805 109.091 39.3667L110.042 39.3169C110.42 39.2971 110.804 39.427 111.109 39.6782C111.413 39.9294 111.614 40.2812 111.667 40.6563L112.064 43.4845C112.117 43.8596 112.017 44.2271 111.787 44.5064C111.557 44.7856 111.215 44.9536 110.837 44.9734L103.231 45.372C102.853 45.3918 102.469 45.2618 102.165 45.0107C101.86 44.7595 101.659 44.4077 101.606 44.0326L101.01 39.7902C100.958 39.4152 101.057 39.0476 101.287 38.7684C101.518 38.4892 101.859 38.3212 102.238 38.3014L103.188 38.2515C103.451 38.2378 103.693 38.4377 103.73 38.698C103.766 38.9583 103.583 39.1805 103.321 39.1943L102.37 39.2441Z" fill="white"/>
<path fill-rule="evenodd" clip-rule="evenodd" d="M102.725 35.3691C102.955 35.0899 103.297 34.9219 103.675 34.9021L107.478 34.7028C107.856 34.6829 108.24 34.8129 108.545 35.0641C108.849 35.3153 109.05 35.6671 109.103 36.0422L110.295 44.5269C110.332 44.7873 110.149 45.0094 109.886 45.0232C109.624 45.037 109.381 44.8371 109.344 44.5767L108.152 36.092C108.134 35.967 108.068 35.8497 107.966 35.766C107.864 35.6822 107.737 35.6389 107.61 35.6455L103.808 35.8448C103.682 35.8514 103.568 35.9074 103.491 36.0005C103.414 36.0936 103.381 36.2161 103.398 36.3411L104.591 44.8259C104.628 45.0862 104.444 45.3084 104.182 45.3222C103.919 45.3359 103.677 45.136 103.64 44.8757L102.448 36.3909C102.395 36.0159 102.495 35.6483 102.725 35.3691Z" fill="white"/>
</g>
<rect width="99.9163" height="8.76459" rx="4.38229" transform="matrix(0.99863 -0.052336 0.139173 0.990268 124.167 30.7906)" fill="#DEECFF"/>
<rect width="85.893" height="5.25875" rx="2.62938" transform="matrix(0.99863 -0.052336 0.139173 0.990268 125.741 41.9839)" fill="#E1E7EF" fill-opacity="0.8"/>
</g>
<defs>
<filter id="filter0_f_1074_38067" x="170.837" y="22.2743" width="156.737" height="51.3831" filterUnits="userSpaceOnUse" color-interpolation-filters="sRGB">
<feFlood flood-opacity="0" result="BackgroundImageFix"/>
<feBlend mode="normal" in="SourceGraphic" in2="BackgroundImageFix" result="shape"/>
<feGaussianBlur stdDeviation="1.5396" result="effect1_foregroundBlur_1074_38067"/>
</filter>
<filter id="filter1_dddd_1074_38067" x="61.5544" y="12.2551" width="175.982" height="74.4771" filterUnits="userSpaceOnUse" color-interpolation-filters="sRGB">
<feFlood flood-opacity="0" result="BackgroundImageFix"/>
<feColorMatrix in="SourceAlpha" type="matrix" values="0 0 0 0 0 0 0 0 0 0 0 0 0 0 0 0 0 0 127 0" result="hardAlpha"/>
<feOffset dx="-0.7698" dy="0.7698"/>
<feGaussianBlur stdDeviation="1.5396"/>
<feColorMatrix type="matrix" values="0 0 0 0 0 0 0 0 0 0 0 0 0 0 0 0 0 0 0.04 0"/>
<feBlend mode="normal" in2="BackgroundImageFix" result="effect1_dropShadow_1074_38067"/>
<feColorMatrix in="SourceAlpha" type="matrix" values="0 0 0 0 0 0 0 0 0 0 0 0 0 0 0 0 0 0 127 0" result="hardAlpha"/>
<feOffset dx="-3.0792" dy="4.6188"/>
<feGaussianBlur stdDeviation="2.6943"/>
<feColorMatrix type="matrix" values="0 0 0 0 0 0 0 0 0 0 0 0 0 0 0 0 0 0 0.03 0"/>
<feBlend mode="normal" in2="effect1_dropShadow_1074_38067" result="effect2_dropShadow_1074_38067"/>
<feColorMatrix in="SourceAlpha" type="matrix" values="0 0 0 0 0 0 0 0 0 0 0 0 0 0 0 0 0 0 127 0" result="hardAlpha"/>
<feOffset dx="-7.698" dy="10.0074"/>
<feGaussianBlur stdDeviation="3.849"/>
<feColorMatrix type="matrix" values="0 0 0 0 0 0 0 0 0 0 0 0 0 0 0 0 0 0 0.02 0"/>
<feBlend mode="normal" in2="effect2_dropShadow_1074_38067" result="effect3_dropShadow_1074_38067"/>
<feColorMatrix in="SourceAlpha" type="matrix" values="0 0 0 0 0 0 0 0 0 0 0 0 0 0 0 0 0 0 127 0" result="hardAlpha"/>
<feOffset dx="-13.8564" dy="17.7054"/>
<feGaussianBlur stdDeviation="4.6188"/>
<feColorMatrix type="matrix" values="0 0 0 0 0 0 0 0 0 0 0 0 0 0 0 0 0 0 0.01 0"/>
<feBlend mode="normal" in2="effect3_dropShadow_1074_38067" result="effect4_dropShadow_1074_38067"/>
<feBlend mode="normal" in="SourceGraphic" in2="effect4_dropShadow_1074_38067" result="shape"/>
</filter>
<clipPath id="clip0_1074_38067">
<rect width="11.4242" height="11.4242" fill="white" transform="matrix(0.99863 -0.052336 0.139173 0.990268 189.074 45.4191)"/>
</clipPath>
<clipPath id="clip1_1074_38067">
<rect width="11.4242" height="11.4242" fill="white" transform="matrix(0.99863 -0.052336 0.139173 0.990268 15.1577 20.0656)"/>
</clipPath>
<clipPath id="clip2_1074_38067">
<rect width="11.4242" height="11.4242" fill="white" transform="matrix(0.99863 -0.052336 0.139173 0.990268 99.8062 34.63)"/>
</clipPath>
</defs>
</svg>
