<svg width="357" height="68" viewBox="0 0 357 68" fill="none" xmlns="http://www.w3.org/2000/svg">
<g clip-path="url(#clip0_1081_30335)">
<g filter="url(#filter0_d_1081_30335)">
<rect x="59" y="5" width="208" height="64.3544" rx="5.62712" fill="black"/>
<path d="M70.3974 20.6719C68.957 20.6719 67.8303 19.5024 67.8303 17.9978C67.8303 16.5003 68.957 15.338 70.3974 15.338C71.7452 15.338 72.8006 16.2365 72.9788 17.5486H71.8307C71.7095 16.8141 71.139 16.3078 70.4117 16.3078C69.5346 16.3078 68.9427 16.9995 68.9427 17.9978C68.9427 19.0033 69.5346 19.7021 70.4117 19.7021C71.139 19.7021 71.7024 19.1887 71.8307 18.4542H72.9788C72.8006 19.7805 71.7452 20.6719 70.3974 20.6719ZM75.3323 20.6363C74.227 20.6363 73.3998 19.7663 73.3998 18.661C73.3998 17.5486 74.227 16.6857 75.3323 16.6857C76.4376 16.6857 77.2647 17.5486 77.2647 18.661C77.2647 19.7663 76.4376 20.6363 75.3323 20.6363ZM75.3323 19.7591C75.8243 19.7591 76.245 19.3669 76.245 18.661C76.245 17.955 75.8243 17.57 75.3323 17.57C74.8402 17.57 74.4195 17.955 74.4195 18.661C74.4195 19.3669 74.8402 19.7591 75.3323 19.7591ZM80.2141 18.9605V16.757H81.1982V20.5649H80.2926V20.0658C80.0858 20.4009 79.665 20.6363 79.1801 20.6363C78.4171 20.6363 77.8609 20.1727 77.8609 19.1815V16.757H78.8521V18.989C78.8521 19.5238 79.1159 19.7591 79.5153 19.7591C79.8718 19.7591 80.2141 19.4739 80.2141 18.9605ZM83.0792 18.4898V20.5649H82.088V16.757H83.0008V17.299C83.2789 16.921 83.6711 16.6857 84.1703 16.6857C84.9333 16.6857 85.461 17.1849 85.461 18.1048V20.5649H84.4769V18.4399C84.4769 17.8766 84.2558 17.5628 83.8066 17.5628C83.4144 17.5628 83.0792 17.8766 83.0792 18.4898ZM88.654 19.6023V20.4651C88.4115 20.5863 88.1833 20.6363 87.891 20.6363C87.1066 20.6363 86.6145 20.187 86.6145 19.3313V17.6056H85.8444V16.757H86.6145V15.6303H87.5986V16.757H88.6896V17.6056H87.5986V19.1031C87.5986 19.5452 87.7983 19.7235 88.1548 19.7235C88.3402 19.7235 88.5113 19.6807 88.654 19.6023ZM90.2853 18.718V20.5649H89.2941V16.757H90.2069V17.4915C90.485 17.0066 91.0769 16.7142 91.6901 16.7142V17.7411C90.8487 17.6769 90.2853 17.8766 90.2853 18.718ZM95.7039 16.757L93.8499 21.9412H92.7731L93.315 20.5222L91.8176 16.757H92.8872L93.8427 19.3669L94.7127 16.757H95.7039Z" fill="#E4F28A"/>
<path d="M231.215 20.5649L230.83 19.4668H228.84L228.448 20.5649H227.357L229.282 15.4449H230.466L232.377 20.5649H231.215ZM229.846 16.6287L229.147 18.6039H230.53L229.846 16.6287ZM236.059 16.757L234.661 20.5649H233.577L232.173 16.757H233.242L234.148 19.4383L235.061 16.757H236.059ZM238.007 22.0125C236.981 22.0125 236.296 21.4563 236.253 20.5792H237.209C237.252 21.0142 237.53 21.2424 238 21.2424C238.549 21.2424 238.835 20.95 238.835 20.4009V19.8447C238.628 20.2084 238.236 20.4223 237.772 20.4223C236.838 20.4223 236.139 19.6308 236.139 18.554C236.139 17.4487 236.795 16.6857 237.736 16.6857C238.25 16.6857 238.635 16.8854 238.913 17.2776V16.757H239.819V20.3867C239.819 21.3993 239.134 22.0125 238.007 22.0125ZM237.13 18.554C237.13 19.1744 237.451 19.5666 237.965 19.5666C238.485 19.5666 238.827 19.1602 238.827 18.5612C238.827 17.9408 238.485 17.5414 237.965 17.5414C237.458 17.5414 237.13 17.9336 237.13 18.554ZM244.555 20.6719C243.115 20.6719 241.988 19.5024 241.988 17.9978C241.988 16.5003 243.115 15.338 244.555 15.338C245.903 15.338 246.958 16.2365 247.137 17.5486H245.989C245.867 16.8141 245.297 16.3078 244.569 16.3078C243.692 16.3078 243.101 16.9995 243.101 17.9978C243.101 19.0033 243.692 19.7021 244.569 19.7021C245.297 19.7021 245.86 19.1887 245.989 18.4542H247.137C246.958 19.7805 245.903 20.6719 244.555 20.6719ZM249.49 20.6363C248.385 20.6363 247.558 19.7663 247.558 18.661C247.558 17.5486 248.385 16.6857 249.49 16.6857C250.595 16.6857 251.423 17.5486 251.423 18.661C251.423 19.7663 250.595 20.6363 249.49 20.6363ZM249.49 19.7591C249.982 19.7591 250.403 19.3669 250.403 18.661C250.403 17.955 249.982 17.57 249.49 17.57C248.998 17.57 248.577 17.955 248.577 18.661C248.577 19.3669 248.998 19.7591 249.49 19.7591ZM255.27 19.3456C255.27 20.1442 254.664 20.6363 253.58 20.6363C252.496 20.6363 251.89 20.1157 251.812 19.2671H252.76C252.767 19.6593 253.103 19.9089 253.595 19.9089C253.98 19.9089 254.272 19.7877 254.272 19.5167C254.272 19.2742 254.115 19.1744 253.752 19.1031L253.067 18.9747C252.382 18.8535 251.969 18.4756 251.969 17.8837C251.969 17.1778 252.575 16.6857 253.523 16.6857C254.479 16.6857 255.135 17.192 255.206 18.0121H254.258C254.222 17.6413 253.944 17.4131 253.523 17.4131C253.16 17.4131 252.917 17.5486 252.917 17.791C252.917 18.0192 253.074 18.1119 253.416 18.1761L254.151 18.3116C254.892 18.4542 255.27 18.7965 255.27 19.3456ZM258.237 19.6023V20.4651C257.995 20.5863 257.767 20.6363 257.474 20.6363C256.69 20.6363 256.198 20.187 256.198 19.3313V17.6056H255.428V16.757H256.198V15.6303H257.182V16.757H258.273V17.6056H257.182V19.1031C257.182 19.5452 257.382 19.7235 257.738 19.7235C257.924 19.7235 258.095 19.6807 258.237 19.6023Z" fill="#E4F28A"/>
<line x1="67.1494" y1="28.1399" x2="258.85" y2="28.1399" stroke="white" stroke-opacity="0.11"/>
<rect width="191.701" height="13" transform="translate(67.1494 32.7146)" fill="white" fill-opacity="0.17"/>
<path d="M70.1771 41.7146H69.3927V37.3006H67.724V36.5946H71.8457V37.3006H70.1771V41.7146ZM73.2014 39.5825V41.7146H72.4811V36.5946H73.2014V38.5413C73.4509 38.1349 73.836 37.8639 74.3566 37.8639C75.1338 37.8639 75.6473 38.3631 75.6473 39.2687V41.7146H74.927V39.5111C74.927 38.8622 74.6418 38.4986 74.107 38.4986C73.615 38.4986 73.2014 38.9121 73.2014 39.5825ZM78.892 41.7146V41.1299C78.6567 41.5506 78.236 41.7859 77.6798 41.7859C76.8954 41.7859 76.3819 41.3367 76.3819 40.645C76.3819 39.9033 76.9738 39.5183 78.1005 39.5183C78.3215 39.5183 78.4998 39.5254 78.8064 39.5611V39.283C78.8064 38.741 78.5141 38.4344 78.0149 38.4344C77.4872 38.4344 77.1663 38.7481 77.1449 39.2758H76.4889C76.5246 38.4272 77.1307 37.8639 78.0149 37.8639C78.9491 37.8639 79.491 38.3916 79.491 39.2901V41.7146H78.892ZM77.0665 40.6236C77.0665 41.0158 77.3589 41.2725 77.8224 41.2725C78.4285 41.2725 78.8064 40.8945 78.8064 40.3169V40.0103C78.5283 39.9747 78.3287 39.9675 78.1433 39.9675C77.423 39.9675 77.0665 40.1815 77.0665 40.6236ZM81.3304 37.0581C81.3304 37.3291 81.1164 37.5359 80.8098 37.5359C80.5032 37.5359 80.2821 37.3291 80.2821 37.0581C80.2821 36.78 80.5032 36.5803 80.8098 36.5803C81.1164 36.5803 81.3304 36.78 81.3304 37.0581ZM81.1735 41.7146H80.4533V37.9352H81.1735V41.7146ZM82.8999 41.7146H82.1726V36.5946H82.8999V41.7146ZM86.1879 41.7146V41.1299C85.9526 41.5506 85.5319 41.7859 84.9757 41.7859C84.1913 41.7859 83.6778 41.3367 83.6778 40.645C83.6778 39.9033 84.2697 39.5183 85.3964 39.5183C85.6175 39.5183 85.7957 39.5254 86.1024 39.5611V39.283C86.1024 38.741 85.81 38.4344 85.3108 38.4344C84.7831 38.4344 84.4622 38.7481 84.4409 39.2758H83.7848C83.8205 38.4272 84.4266 37.8639 85.3108 37.8639C86.245 37.8639 86.7869 38.3916 86.7869 39.2901V41.7146H86.1879ZM84.3624 40.6236C84.3624 41.0158 84.6548 41.2725 85.1183 41.2725C85.7244 41.2725 86.1024 40.8945 86.1024 40.3169V40.0103C85.8243 39.9747 85.6246 39.9675 85.4392 39.9675C84.719 39.9675 84.3624 40.1815 84.3624 40.6236ZM88.4694 39.5825V41.7146H87.7492V37.9352H88.4195V38.5627C88.6762 38.142 89.104 37.8639 89.6246 37.8639C90.4019 37.8639 90.9153 38.3631 90.9153 39.2687V41.7146H90.1951V39.5111C90.1951 38.8622 89.9098 38.4986 89.375 38.4986C88.883 38.4986 88.4694 38.9121 88.4694 39.5825ZM91.6 39.8249C91.6 38.6768 92.2561 37.8639 93.2758 37.8639C93.7821 37.8639 94.2242 38.1206 94.4881 38.5841V36.5946H95.2083V41.7146H94.538V41.0372C94.267 41.5149 93.8106 41.7859 93.2758 41.7859C92.2561 41.7859 91.6 40.9587 91.6 39.8249ZM92.3488 39.8249C92.3488 40.6664 92.7909 41.1441 93.4184 41.1441C94.0317 41.1441 94.4881 40.645 94.4881 39.8106C94.4881 38.9621 94.0174 38.4986 93.4184 38.4986C92.7909 38.4986 92.3488 38.9692 92.3488 39.8249Z" fill="white"/>
<path d="M245.28 42.3493H244.781V41.7716C243.833 41.6718 243.269 41.0728 243.219 40.2171H243.947C243.982 40.809 244.346 41.1869 245.045 41.1869C245.622 41.1869 246.079 40.9017 246.079 40.4096C246.079 40.0032 245.808 39.8035 245.294 39.6894L244.653 39.5468C244.004 39.4113 243.383 39.1118 243.383 38.249C243.383 37.5074 243.954 36.9369 244.781 36.8371V36.2452H245.28V36.8371C246.114 36.9298 246.735 37.5002 246.792 38.3631H246.065C246.029 37.814 245.63 37.4218 245.052 37.4218C244.467 37.4218 244.118 37.7569 244.118 38.1991C244.118 38.6554 244.496 38.8194 244.916 38.9121L245.558 39.0476C246.335 39.2116 246.849 39.5611 246.849 40.3169C246.849 41.1013 246.278 41.7146 245.28 41.7788V42.3493ZM249.591 40.0745H247.373V39.4256H249.591V40.0745ZM252.167 40.0745H249.949V39.4256H252.167V40.0745ZM254.743 40.0745H252.525V39.4256H254.743V40.0745ZM256.142 41.7146H255.422V36.5946H256.142V39.6252L257.761 37.9352H258.609L256.862 39.7679L258.773 41.7146H257.846L256.142 39.9247V41.7146Z" fill="white"/>
<path d="M71.5546 57.2918C71.5546 58.1832 70.8415 58.8606 69.6007 58.8606C68.3671 58.8606 67.6183 58.1832 67.5541 57.1635H68.3528C68.3885 57.8124 68.802 58.2331 69.5864 58.2331C70.2354 58.2331 70.7203 57.9265 70.7203 57.3988C70.7203 56.9709 70.4422 56.757 69.8503 56.6286L69.1087 56.486C68.3885 56.3434 67.7324 55.9797 67.7324 55.1098C67.7324 54.2469 68.4883 53.598 69.5508 53.598C70.6133 53.598 71.4191 54.2469 71.4833 55.2666H70.6846C70.6418 54.6534 70.1997 54.2255 69.5579 54.2255C68.8947 54.2255 68.5311 54.6177 68.5311 55.0598C68.5311 55.5447 68.9518 55.7159 69.4296 55.8157L70.1854 55.9655C71.0625 56.1437 71.5546 56.5288 71.5546 57.2918ZM73.282 54.1328C73.282 54.4038 73.0681 54.6106 72.7614 54.6106C72.4548 54.6106 72.2338 54.4038 72.2338 54.1328C72.2338 53.8547 72.4548 53.655 72.7614 53.655C73.0681 53.655 73.282 53.8547 73.282 54.1328ZM73.1251 58.7893H72.4049V55.0099H73.1251V58.7893ZM74.8445 56.6572V58.7893H74.1242V55.0099H74.7945V55.6374C75.0513 55.2167 75.4791 54.9386 75.9997 54.9386C76.7769 54.9386 77.2904 55.4378 77.2904 56.3434V58.7893H76.5701V56.5859C76.5701 55.9369 76.2849 55.5733 75.7501 55.5733C75.2581 55.5733 74.8445 55.9869 74.8445 56.6572ZM79.7578 60.244C78.7666 60.244 78.1249 59.7163 78.0821 58.8606H78.7809C78.8237 59.3883 79.166 59.6735 79.7507 59.6735C80.3996 59.6735 80.7419 59.3241 80.7419 58.6752V57.9906C80.528 58.447 80.1001 58.7109 79.5867 58.7109C78.6454 58.7109 77.9751 57.9336 77.9751 56.8212C77.9751 55.6945 78.6169 54.9386 79.5653 54.9386C80.1073 54.9386 80.5351 55.2025 80.7918 55.6802V55.0099H81.4621V58.661C81.4621 59.6521 80.8275 60.244 79.7578 60.244ZM78.7025 56.8212C78.7025 57.6056 79.0875 58.0833 79.7151 58.0833C80.3283 58.0833 80.7419 57.5913 80.7419 56.8426C80.7419 56.0582 80.3354 55.559 79.7151 55.559C79.0947 55.559 78.7025 56.0439 78.7025 56.8212ZM84.7475 58.7893V58.2046C84.5122 58.6253 84.0914 58.8606 83.5352 58.8606C82.7508 58.8606 82.2374 58.4114 82.2374 57.7197C82.2374 56.9781 82.8293 56.593 83.956 56.593C84.177 56.593 84.3553 56.6001 84.6619 56.6358V56.3577C84.6619 55.8157 84.3696 55.5091 83.8704 55.5091C83.3427 55.5091 83.0218 55.8228 83.0004 56.3505H82.3444C82.38 55.502 82.9862 54.9386 83.8704 54.9386C84.8045 54.9386 85.3465 55.4663 85.3465 56.3648V58.7893H84.7475ZM82.922 57.6983C82.922 58.0905 83.2143 58.3472 83.6779 58.3472C84.284 58.3472 84.6619 57.9693 84.6619 57.3916V57.085C84.3838 57.0494 84.1842 57.0422 83.9987 57.0422C83.2785 57.0422 82.922 57.2562 82.922 57.6983ZM89.917 56.8996C89.917 58.0406 89.2609 58.8606 88.2483 58.8606C87.7349 58.8606 87.2999 58.6039 87.029 58.1475V60.1656H86.3087V55.0099H86.979V55.7016C87.25 55.2167 87.7135 54.9386 88.2483 54.9386C89.2538 54.9386 89.917 55.7587 89.917 56.8996ZM89.1682 56.8996C89.1682 56.051 88.719 55.5733 88.0986 55.5733C87.4996 55.5733 87.029 56.051 87.029 56.8996C87.029 57.7339 87.4925 58.2188 88.0986 58.2188C88.719 58.2188 89.1682 57.7482 89.1682 56.8996ZM92.2295 58.8606C91.1599 58.8606 90.3755 58.0192 90.3755 56.8996C90.3755 55.7801 91.1599 54.9386 92.2295 54.9386C93.2992 54.9386 94.0836 55.7801 94.0836 56.8996C94.0836 58.0192 93.2992 58.8606 92.2295 58.8606ZM92.2295 58.226C92.8499 58.226 93.3419 57.7268 93.3419 56.8996C93.3419 56.0724 92.8499 55.5804 92.2295 55.5804C91.6091 55.5804 91.1242 56.0724 91.1242 56.8996C91.1242 57.7268 91.6091 58.226 92.2295 58.226ZM95.5373 56.8568V58.7893H94.8171V55.0099H95.4874V55.8086C95.7512 55.288 96.3217 54.96 96.9421 54.96V55.7088C96.1291 55.666 95.5373 56.0225 95.5373 56.8568ZM99.0519 58.8606C97.9609 58.8606 97.2264 58.0691 97.2264 56.8782C97.2264 55.7587 97.9894 54.9386 99.0305 54.9386C100.157 54.9386 100.906 55.8514 100.778 57.0779H97.9609C98.018 57.848 98.403 58.2973 99.0377 58.2973C99.5725 58.2973 99.9433 58.0049 100.065 57.5129H100.778C100.592 58.3543 99.9433 58.8606 99.0519 58.8606ZM99.0163 55.4806C98.4387 55.4806 98.0465 55.8942 97.968 56.6001H100.015C99.979 55.9013 99.601 55.4806 99.0163 55.4806Z" fill="white"/>
<path d="M245.28 59.424H244.781V58.8464C243.833 58.7465 243.269 58.1475 243.219 57.2918H243.947C243.982 57.8837 244.346 58.2616 245.045 58.2616C245.622 58.2616 246.079 57.9764 246.079 57.4843C246.079 57.0779 245.808 56.8782 245.294 56.7641L244.653 56.6215C244.004 56.486 243.383 56.1865 243.383 55.3237C243.383 54.5821 243.954 54.0116 244.781 53.9118V53.3199H245.28V53.9118C246.114 54.0045 246.735 54.5749 246.792 55.4378H246.065C246.029 54.8887 245.63 54.4965 245.052 54.4965C244.467 54.4965 244.118 54.8316 244.118 55.2738C244.118 55.7301 244.496 55.8942 244.916 55.9869L245.558 56.1223C246.335 56.2864 246.849 56.6358 246.849 57.3916C246.849 58.176 246.278 58.7893 245.28 58.8535V59.424ZM249.591 57.1492H247.373V56.5003H249.591V57.1492ZM252.167 57.1492H249.949V56.5003H252.167V57.1492ZM254.743 57.1492H252.525V56.5003H254.743V57.1492ZM256.142 58.7893H255.422V53.6693H256.142V56.6999L257.761 55.0099H258.609L256.862 56.8426L258.773 58.7893H257.846L256.142 56.9994V58.7893Z" fill="white"/>
</g>
<path d="M200.901 37.5098C200.998 37.4904 201.099 37.4996 201.19 37.5371L218.191 44.5371C218.282 44.5746 218.36 44.6391 218.415 44.7207C218.47 44.8022 218.5 44.8978 218.501 44.9961C218.502 45.0945 218.473 45.1911 218.419 45.2734C218.365 45.3558 218.288 45.4212 218.197 45.46L211.933 48.1445C211.579 48.2962 211.296 48.5788 211.145 48.9326L208.46 55.1973C208.421 55.2877 208.357 55.365 208.274 55.4189C208.192 55.4728 208.095 55.5016 207.997 55.501C207.899 55.5003 207.802 55.4701 207.721 55.415C207.639 55.3599 207.576 55.2815 207.538 55.1904L200.538 38.1904L200.515 38.1211C200.497 38.0498 200.495 37.975 200.51 37.9023C200.529 37.8055 200.577 37.7163 200.646 37.6465C200.716 37.5768 200.805 37.5292 200.901 37.5098Z" fill="black" stroke="white"/>
</g>
<defs>
<filter id="filter0_d_1081_30335" x="48.813" y="-3.14962" width="228.374" height="84.7285" filterUnits="userSpaceOnUse" color-interpolation-filters="sRGB">
<feFlood flood-opacity="0" result="BackgroundImageFix"/>
<feColorMatrix in="SourceAlpha" type="matrix" values="0 0 0 0 0 0 0 0 0 0 0 0 0 0 0 0 0 0 127 0" result="hardAlpha"/>
<feOffset dy="2.03741"/>
<feGaussianBlur stdDeviation="5.09351"/>
<feComposite in2="hardAlpha" operator="out"/>
<feColorMatrix type="matrix" values="0 0 0 0 0 0 0 0 0 0 0 0 0 0 0 0 0 0 0.15 0"/>
<feBlend mode="normal" in2="BackgroundImageFix" result="effect1_dropShadow_1081_30335"/>
<feBlend mode="normal" in="SourceGraphic" in2="effect1_dropShadow_1081_30335" result="shape"/>
</filter>
<clipPath id="clip0_1081_30335">
<rect width="357" height="68" fill="white"/>
</clipPath>
</defs>
</svg>
