<svg width="295" height="368" viewBox="0 0 295 368" fill="none" xmlns="http://www.w3.org/2000/svg">
<g clip-path="url(#clip0_1176_29587)">
<rect width="294.273" height="367.68" rx="15.4542" fill="#005E8F"/>
<rect x="-945.818" y="-6" width="1240" height="379" fill="url(#paint0_linear_1176_29587)"/>
<g filter="url(#filter0_f_1176_29587)">
<circle cx="136.182" cy="35" r="299" fill="white" fill-opacity="0.13"/>
</g>
<path d="M145.527 79.2031L145.527 290.41" stroke="#E4F28A" stroke-width="0.643923" stroke-dasharray="1.29 1.29"/>
<g filter="url(#filter1_ddd_1176_29587)">
<path d="M101.906 115.757C102.525 110.86 106.997 107.393 111.893 108.012L200.05 119.159C204.947 119.778 208.414 124.249 207.795 129.146L201.667 177.61C201.048 182.506 196.576 185.974 191.68 185.355L103.523 174.208C98.6266 173.589 95.1591 169.117 95.7782 164.221L101.906 115.757Z" fill="#1C1C1C"/>
<rect x="111.146" y="113.922" width="26.8096" height="26.8096" rx="4.46827" transform="rotate(7.20652 111.146 113.922)" fill="#E4F28A"/>
<rect x="111.63" y="114.546" width="25.6925" height="25.6925" rx="3.90974" transform="rotate(7.20652 111.63 114.546)" stroke="#F0EFEF" stroke-opacity="0.24" stroke-width="1.11707"/>
<path fill-rule="evenodd" clip-rule="evenodd" d="M128.058 125.796C128.247 126.039 128.203 126.39 127.959 126.579L121.093 131.904C120.849 132.093 120.498 132.048 120.309 131.805L117.889 128.684C117.7 128.44 117.744 128.089 117.988 127.9C118.232 127.711 118.583 127.755 118.772 127.999L120.85 130.679L127.274 125.696C127.518 125.507 127.869 125.552 128.058 125.796Z" fill="#1C1C1C"/>
<path d="M148.512 136.191L147.375 136.047L148.184 129.644L145.764 129.338L145.893 128.314L151.872 129.07L151.742 130.094L149.322 129.788L148.512 136.191ZM152.84 133.89L152.485 136.693L151.44 136.561L152.134 131.079L153.106 131.202L152.959 132.36C153.438 131.653 154.325 131.282 155.225 131.396L155.088 132.482C153.917 132.271 152.993 132.68 152.84 133.89ZM158.669 137.475L158.776 136.627C158.358 137.194 157.704 137.458 156.897 137.356C155.76 137.212 155.097 136.466 155.224 135.463C155.36 134.387 156.289 133.937 157.924 134.144C158.244 134.184 158.501 134.227 158.94 134.335L158.991 133.932C159.09 133.146 158.722 132.647 157.998 132.556C157.233 132.459 156.71 132.855 156.582 133.617L155.63 133.496C155.838 132.272 156.82 131.566 158.103 131.728C159.458 131.9 160.147 132.764 159.982 134.068L159.538 137.585L158.669 137.475ZM156.221 135.557C156.149 136.126 156.526 136.552 157.198 136.637C158.078 136.748 158.695 136.27 158.801 135.432L158.857 134.987C158.46 134.884 158.172 134.837 157.903 134.803C156.859 134.671 156.302 134.916 156.221 135.557ZM166.006 132.833L163.255 138.055L162.117 137.911L160.752 132.168L161.879 132.311L162.858 136.785L164.941 132.698L166.006 132.833ZM168.124 138.775C166.541 138.575 165.621 137.292 165.839 135.565C166.045 133.941 167.302 132.892 168.812 133.082C170.446 133.289 171.365 134.75 170.954 136.506L166.868 135.989C166.81 137.117 167.286 137.839 168.206 137.956C168.982 138.054 169.574 137.698 169.84 137.006L170.874 137.137C170.451 138.323 169.417 138.939 168.124 138.775ZM168.692 133.866C167.854 133.76 167.209 134.288 166.966 135.298L169.935 135.673C170.011 134.653 169.54 133.973 168.692 133.866ZM172.805 139.262L171.75 139.129L172.689 131.702L173.744 131.835L172.805 139.262Z" fill="white"/>
<rect x="106.662" y="149.387" width="89.1868" height="10.2345" rx="5.11727" transform="rotate(7.20652 106.662 149.387)" fill="white" fill-opacity="0.57"/>
<rect x="105.005" y="162.496" width="77.4902" height="5.84831" rx="2.92416" transform="rotate(7.20652 105.005 162.496)" fill="#E1E7EF" fill-opacity="0.31"/>
</g>
<g filter="url(#filter2_ddd_1176_29587)">
<path d="M98.3499 195.395C98.6652 190.469 102.914 186.732 107.839 187.048L196.516 192.726C201.442 193.041 205.179 197.289 204.863 202.215L201.742 250.965C201.427 255.891 197.178 259.628 192.253 259.312L103.576 253.634C98.6502 253.319 94.9131 249.071 95.2284 244.145L98.3499 195.395Z" fill="#FDFDFC"/>
<rect x="107.98" y="193.585" width="25.6925" height="25.6925" rx="3.90974" transform="rotate(3.6636 107.98 193.585)" stroke="#F0EFEF" stroke-width="1.11707"/>
<path fill-rule="evenodd" clip-rule="evenodd" d="M125.072 203.799C125.276 204.031 125.253 204.384 125.022 204.587L118.498 210.326C118.266 210.53 117.913 210.507 117.71 210.276L115.101 207.31C114.897 207.079 114.92 206.726 115.152 206.522C115.383 206.318 115.736 206.341 115.94 206.572L118.179 209.118L124.284 203.749C124.516 203.545 124.869 203.568 125.072 203.799Z" fill="#979694"/>
<path d="M146.023 212.902L144.879 212.829L145.291 206.389L142.856 206.233L142.922 205.203L148.936 205.588L148.87 206.618L146.436 206.462L146.023 212.902ZM150.2 210.339L150.019 213.158L148.969 213.091L149.322 207.577L150.3 207.639L150.225 208.805C150.659 208.07 151.522 207.644 152.427 207.702L152.357 208.795C151.175 208.656 150.278 209.121 150.2 210.339ZM155.141 213.591C153.549 213.489 152.551 212.265 152.663 210.528C152.767 208.894 153.957 207.769 155.476 207.866C157.12 207.971 158.127 209.373 157.825 211.151L153.716 210.888C153.727 212.017 154.247 212.708 155.173 212.767C155.953 212.817 156.522 212.425 156.744 211.719L157.785 211.785C157.436 212.996 156.442 213.674 155.141 213.591ZM155.405 208.656C154.562 208.602 153.951 209.168 153.771 210.191L156.757 210.382C156.77 209.359 156.258 208.71 155.405 208.656ZM162.122 213.933L162.176 213.08C161.794 213.672 161.158 213.976 160.346 213.924C159.202 213.851 158.495 213.147 158.559 212.138C158.628 211.056 159.528 210.549 161.172 210.655C161.495 210.675 161.754 210.702 162.198 210.783L162.224 210.377C162.275 209.586 161.877 209.112 161.148 209.065C160.378 209.016 159.881 209.444 159.8 210.212L158.843 210.15C158.974 208.915 159.912 208.15 161.202 208.233C162.565 208.32 163.306 209.141 163.222 210.452L162.996 213.989L162.122 213.933ZM159.56 212.171C159.523 212.743 159.926 213.145 160.602 213.188C161.487 213.245 162.073 212.729 162.127 211.886L162.156 211.439C161.754 211.361 161.463 211.331 161.192 211.314C160.142 211.247 159.601 211.526 159.56 212.171ZM167.525 213.255L167.466 214.181C167.134 214.306 166.85 214.34 166.517 214.319C165.497 214.254 164.825 213.657 164.903 212.44L165.092 209.485L163.875 209.407L163.932 208.512L165.149 208.59L165.254 206.956L166.305 207.024L166.2 208.657L167.865 208.764L167.808 209.659L166.143 209.552L165.969 212.268C165.92 213.027 166.267 213.321 166.829 213.357C167.079 213.373 167.3 213.345 167.525 213.255ZM169.565 214.41L168.514 214.342L168.867 208.828L169.845 208.891L169.786 209.806C170.201 209.196 170.819 208.849 171.579 208.897C172.39 208.949 172.978 209.405 173.181 210.149C173.611 209.466 174.274 209.07 175.116 209.124C176.25 209.196 176.931 209.982 176.848 211.293L176.619 214.861L175.568 214.794L175.775 211.558C175.834 210.643 175.463 210.076 174.693 210.026C173.975 209.98 173.354 210.547 173.294 211.473L173.092 214.636L172.041 214.568L172.248 211.332C172.307 210.417 171.936 209.85 171.166 209.801C170.437 209.754 169.826 210.321 169.767 211.247L169.565 214.41ZM180.285 215.201C178.693 215.099 177.695 213.875 177.806 212.138C177.911 210.504 179.101 209.379 180.62 209.476C182.264 209.581 183.271 210.983 182.969 212.761L178.859 212.498C178.871 213.627 179.391 214.318 180.317 214.377C181.097 214.427 181.665 214.035 181.888 213.329L182.929 213.395C182.58 214.606 181.585 215.284 180.285 215.201ZM180.549 210.266C179.706 210.212 179.095 210.778 178.914 211.801L181.901 211.992C181.914 210.969 181.402 210.32 180.549 210.266ZM185.176 212.286L184.976 215.397L183.926 215.329L184.279 209.815L185.257 209.877L185.198 210.793C185.612 210.203 186.262 209.837 187.022 209.886C188.156 209.959 188.858 210.735 188.774 212.056L188.545 215.625L187.494 215.558L187.7 212.343C187.761 211.396 187.379 210.839 186.598 210.789C185.88 210.743 185.238 211.308 185.176 212.286ZM193.096 214.893L193.036 215.819C192.705 215.944 192.42 215.978 192.087 215.956C191.068 215.891 190.395 215.294 190.473 214.077L190.663 211.122L189.445 211.044L189.503 210.149L190.72 210.227L190.825 208.594L191.875 208.661L191.771 210.295L193.436 210.401L193.378 211.296L191.714 211.189L191.54 213.905C191.491 214.665 191.838 214.958 192.4 214.994C192.649 215.01 192.871 214.983 193.096 214.893Z" fill="#1C1C1C"/>
<rect x="105.175" y="228.666" width="90.6489" height="10.2345" rx="5.11727" transform="rotate(3.6636 105.175 228.666)" fill="#DEECFF"/>
<rect x="104.33" y="241.852" width="78.9522" height="5.84831" rx="2.92416" transform="rotate(3.6636 104.33 241.852)" fill="#E1E7EF" fill-opacity="0.8"/>
</g>
<g filter="url(#filter3_ddd_1176_29587)">
<path d="M95.8595 283.097C95.1955 278.207 98.6219 273.704 103.513 273.04L191.563 261.086C196.454 260.422 200.957 263.848 201.621 268.739L208.193 317.145C208.857 322.036 205.43 326.538 200.54 327.202L112.489 339.157C107.598 339.821 103.095 336.394 102.431 331.504L95.8595 283.097Z" fill="#FDFDFC"/>
<rect x="104.943" y="279.422" width="25.6925" height="25.6925" rx="3.90974" transform="rotate(-7.73149 104.943 279.422)" stroke="#F0EFEF" stroke-width="1.11707"/>
<path fill-rule="evenodd" clip-rule="evenodd" d="M123.716 286.056C123.961 286.243 124.009 286.593 123.822 286.839L118.56 293.753C118.374 293.999 118.023 294.047 117.778 293.86L114.635 291.468C114.389 291.281 114.342 290.931 114.529 290.685C114.715 290.44 115.066 290.392 115.311 290.579L118.01 292.633L122.933 286.162C123.12 285.917 123.47 285.869 123.716 286.056Z" fill="#979694"/>
<path d="M144.086 291.108L142.95 291.263L141.943 283.845L144.712 283.469C146.416 283.238 147.553 283.936 147.753 285.413C147.898 286.477 147.337 287.384 146.247 287.806L148.663 290.487L147.299 290.672L145.071 288.134L143.708 288.319L144.086 291.108ZM143.208 284.641L143.579 287.369L145.139 287.157C146.193 287.014 146.729 286.467 146.607 285.569C146.486 284.68 145.822 284.286 144.768 284.429L143.208 284.641ZM151.68 290.183C150.1 290.397 148.88 289.395 148.646 287.67C148.425 286.048 149.37 284.71 150.878 284.505C152.51 284.283 153.775 285.458 153.83 287.26L149.749 287.815C149.983 288.919 150.629 289.494 151.549 289.369C152.324 289.264 152.803 288.768 152.882 288.031L153.915 287.891C153.812 289.146 152.972 290.007 151.68 290.183ZM150.964 285.293C150.127 285.406 149.64 286.083 149.665 287.121L152.63 286.718C152.441 285.713 151.811 285.178 150.964 285.293ZM157.349 289.424C155.851 289.627 154.637 288.592 154.41 286.919C154.185 285.266 155.098 283.932 156.576 283.731C157.929 283.547 159.033 284.313 159.422 285.712L158.327 285.861C158.095 284.998 157.475 284.545 156.711 284.649C155.812 284.771 155.327 285.616 155.484 286.773C155.643 287.94 156.334 288.615 157.233 288.492C158.008 288.387 158.475 287.798 158.478 286.892L159.563 286.745C159.573 288.217 158.723 289.237 157.349 289.424ZM163.171 288.623C161.621 288.833 160.319 287.768 160.099 286.146C159.879 284.524 160.85 283.151 162.399 282.941C163.949 282.73 165.251 283.795 165.471 285.417C165.691 287.039 164.72 288.412 163.171 288.623ZM163.046 287.703C163.945 287.581 164.559 286.761 164.397 285.563C164.234 284.364 163.424 283.748 162.525 283.87C161.627 283.992 161.021 284.801 161.184 285.999C161.346 287.197 162.147 287.825 163.046 287.703ZM170.536 281.941L169.224 287.696L168.087 287.85L165.288 282.654L166.414 282.501L168.513 286.572L169.472 282.086L170.536 281.941ZM174.114 287.137C172.534 287.352 171.314 286.349 171.08 284.624C170.859 283.002 171.803 281.664 173.312 281.459C174.944 281.237 176.208 282.413 176.264 284.215L172.183 284.769C172.417 285.873 173.063 286.448 173.983 286.324C174.758 286.218 175.237 285.722 175.316 284.985L176.349 284.845C176.246 286.1 175.406 286.962 174.114 287.137ZM173.398 282.247C172.561 282.361 172.074 283.037 172.099 284.075L175.064 283.673C174.875 282.667 174.245 282.132 173.398 282.247ZM178.372 283.602L178.752 286.402L177.709 286.544L176.965 281.068L177.936 280.936L178.094 282.093C178.373 281.287 179.135 280.7 180.034 280.578L180.182 281.663C178.995 281.761 178.208 282.394 178.372 283.602ZM185.515 279.907L183.792 287.749L182.655 287.903L183.16 285.73L180.267 280.62L181.393 280.467L183.551 284.425L184.462 280.051L185.515 279.907Z" fill="#1C1C1C"/>
<rect x="109.123" y="314.365" width="90.6489" height="10.2345" rx="5.11727" transform="rotate(-7.73149 109.123 314.365)" fill="#DEECFF"/>
<rect x="110.9" y="327.459" width="78.9522" height="5.84831" rx="2.92416" transform="rotate(-7.73149 110.9 327.459)" fill="#E1E7EF" fill-opacity="0.8"/>
</g>
<rect x="21.8936" y="19.9619" width="20.6055" height="21.3072" rx="10.3028" fill="#FEF18B"/>
<path d="M35.2254 33.3272H34.1214V35.1152H32.9094V33.3272H29.0094V32.4752L33.1854 27.0032H34.1214V32.2712H35.2254V33.3272ZM30.3654 32.2712H32.9094V28.8392L30.3654 32.2712Z" fill="#1C1C1C"/>
<g filter="url(#filter4_d_1176_29587)">
<path d="M65.3584 54.7329C65.3584 50.4654 68.8179 47.0059 73.0855 47.0059H214.297C218.564 47.0059 222.024 50.4654 222.024 54.7329V75.8843C222.024 80.1519 218.564 83.6114 214.297 83.6114H73.0855C68.8179 83.6114 65.3584 80.1519 65.3584 75.8843V54.7329Z" fill="white" shape-rendering="crispEdges"/>
<path d="M73.0859 47.3281H214.297C218.386 47.3283 221.702 50.6438 221.702 54.7334V75.8848C221.702 79.9742 218.386 83.2889 214.297 83.2891H73.0859C68.9964 83.2891 65.6809 79.9743 65.6807 75.8848V54.7334C65.6807 50.6437 68.9962 47.3281 73.0859 47.3281Z" stroke="#CFCECE" stroke-width="0.643923" shape-rendering="crispEdges"/>
<path fill-rule="evenodd" clip-rule="evenodd" d="M95.3938 58.8992C95.9949 58.7143 96.668 58.6731 97.1993 58.9387C97.3239 59.001 97.4249 59.1021 97.4872 59.2267C97.7529 59.758 97.7117 60.4311 97.5268 61.0321C97.3346 61.6567 96.9572 62.3112 96.4007 62.8676L94.3962 64.8722L95.4797 69.8082C95.4806 69.8121 95.4814 69.816 95.4822 69.8199C95.6043 70.4305 95.3311 70.9221 94.9151 71.2341C94.8699 71.268 94.8204 71.2958 94.7679 71.3168L94.446 71.4456C93.9106 71.6597 93.2567 71.577 92.8546 71.0409C92.8469 71.0306 92.8395 71.0201 92.8324 71.0094L90.9351 68.1363L89.8281 68.8742V70.4614C89.8281 70.6321 89.7603 70.7959 89.6395 70.9167L88.9956 71.5606C88.8592 71.697 88.6688 71.7651 88.4769 71.7461C88.2849 71.7271 88.1115 71.623 88.0045 71.4625L86.7881 69.6378L84.9635 68.4214C84.803 68.3144 84.6989 68.1411 84.6799 67.9491C84.6609 67.7571 84.729 67.5668 84.8654 67.4303L85.5093 66.7864C85.63 66.6657 85.7938 66.5978 85.9646 66.5978H87.5518L88.2897 65.4909L85.4166 63.5936C85.4059 63.5865 85.3954 63.5791 85.3851 63.5714C84.8489 63.1693 84.7662 62.5154 84.9804 61.98C84.9931 61.9481 85.0084 61.9173 85.0261 61.8878L85.2085 61.5838C85.4806 61.0667 86.0283 60.8282 86.606 60.9438C86.61 60.9446 86.6139 60.9454 86.6178 60.9463L91.5538 62.0298L93.5583 60.0252C94.1148 59.4688 94.7692 59.0914 95.3938 58.8992ZM95.7726 60.1301C95.3508 60.2599 94.8784 60.5264 94.469 60.9359L92.2152 63.1896C92.06 63.3449 91.8363 63.4103 91.6219 63.3632L86.3493 62.2058C86.345 62.205 86.3411 62.2044 86.3376 62.204C86.3331 62.2123 86.3284 62.2204 86.3236 62.2285L86.164 62.4944C86.1581 62.5169 86.1576 62.5319 86.1579 62.5398L89.5391 64.7726C89.682 64.867 89.7814 65.0144 89.8154 65.1823C89.8493 65.3502 89.815 65.5247 89.72 65.6672L88.4322 67.5989C88.3127 67.7781 88.1117 67.8857 87.8964 67.8857H86.4815L87.6096 68.6377C87.6804 68.6849 87.7411 68.7456 87.7882 68.8163L88.5403 69.9444V68.5296C88.5403 68.3143 88.6479 68.1132 88.827 67.9938L90.7588 66.706C90.9013 66.611 91.0758 66.5766 91.2437 66.6106C91.4115 66.6446 91.5589 66.744 91.6533 66.8869L93.8862 70.2681C93.8977 70.2686 93.9246 70.2671 93.9677 70.2498L94.1931 70.1597C94.2128 70.139 94.2192 70.126 94.2206 70.1228C94.2218 70.12 94.2225 70.1176 94.2229 70.1133C94.2234 70.1089 94.2239 70.0973 94.2201 70.0767L93.0627 64.8041C93.0157 64.5896 93.0811 64.366 93.2364 64.2107L95.4901 61.957C95.8996 61.5475 96.1661 61.0751 96.2959 60.6534C96.375 60.3961 96.3947 60.1897 96.3863 60.0396C96.2362 60.0313 96.0299 60.0509 95.7726 60.1301Z" fill="#1C1C1C"/>
<path d="M106.25 69.3086H105.117V61.9112H109.609V62.9003H106.25V65.3111H109.114V66.3002H106.25V69.3086ZM113.997 67.0626V63.8481H115.038V69.3086H114.07V68.4432C113.781 69.0098 113.142 69.4116 112.4 69.4116C111.298 69.4116 110.536 68.7625 110.536 67.3614V63.8481H111.576V67.1553C111.576 68.1032 112.05 68.4947 112.73 68.4947C113.431 68.4947 113.997 67.9177 113.997 67.0626ZM117.533 69.3086H116.482V61.9112H117.533V69.3086ZM120.027 69.3086H118.976V61.9112H120.027V69.3086ZM125.775 69.4219C124.281 69.4219 123.231 68.2474 123.231 66.5784C123.231 64.9299 124.302 63.7451 125.775 63.7451C127.125 63.7451 128.104 64.6414 128.3 66.0632H127.207C127.094 65.1875 126.548 64.662 125.786 64.662C124.889 64.662 124.302 65.4244 124.302 66.5784C124.302 67.7426 124.889 68.4947 125.786 68.4947C126.558 68.4947 127.094 67.9795 127.218 67.0935H128.3C128.114 68.5359 127.146 69.4219 125.775 69.4219ZM132.653 69.3086V68.4638C132.313 69.0716 131.705 69.4116 130.902 69.4116C129.768 69.4116 129.026 68.7625 129.026 67.7632C129.026 66.6917 129.882 66.1353 131.509 66.1353C131.829 66.1353 132.086 66.1456 132.529 66.1972V65.7953C132.529 65.0123 132.107 64.5693 131.386 64.5693C130.623 64.5693 130.16 65.0226 130.129 65.785H129.181C129.233 64.559 130.108 63.7451 131.386 63.7451C132.735 63.7451 133.518 64.5075 133.518 65.8057V69.3086H132.653ZM130.016 67.7323C130.016 68.2989 130.438 68.6698 131.108 68.6698C131.983 68.6698 132.529 68.1238 132.529 67.2893V66.8462C132.128 66.7947 131.839 66.7844 131.571 66.7844C130.531 66.7844 130.016 67.0935 130.016 67.7323ZM135.949 66.5165V69.3086H134.909V63.8481H135.877V65.002C136.258 64.2499 137.082 63.776 137.979 63.776V64.8578C136.804 64.796 135.949 65.3111 135.949 66.5165ZM141.027 69.4116C139.451 69.4116 138.39 68.268 138.39 66.5475C138.39 64.9299 139.492 63.7451 140.996 63.7451C142.624 63.7451 143.706 65.0639 143.52 66.8359H139.451C139.533 67.9486 140.09 68.5977 141.006 68.5977C141.779 68.5977 142.315 68.1753 142.49 67.4644H143.52C143.252 68.6801 142.315 69.4116 141.027 69.4116ZM140.976 64.5281C140.141 64.5281 139.574 65.1257 139.461 66.1456H142.418C142.366 65.136 141.82 64.5281 140.976 64.5281ZM148.045 62.5809C148.045 62.9724 147.736 63.2712 147.293 63.2712C146.85 63.2712 146.53 62.9724 146.53 62.5809C146.53 62.1791 146.85 61.8906 147.293 61.8906C147.736 61.8906 148.045 62.1791 148.045 62.5809ZM147.808 63.8481V69.5765C147.808 70.8231 147.128 71.4001 146.128 71.4001C145.902 71.4001 145.644 71.3898 145.407 71.297V70.3183C145.582 70.4007 145.778 70.4316 146.005 70.4316C146.468 70.4316 146.767 70.1843 146.767 69.5559V63.8481H147.808ZM151.539 69.4116C149.993 69.4116 148.86 68.1959 148.86 66.5784C148.86 64.9608 149.993 63.7451 151.539 63.7451C153.084 63.7451 154.217 64.9608 154.217 66.5784C154.217 68.1959 153.084 69.4116 151.539 69.4116ZM151.539 68.4947C152.435 68.4947 153.146 67.7735 153.146 66.5784C153.146 65.3832 152.435 64.6723 151.539 64.6723C150.642 64.6723 149.942 65.3832 149.942 66.5784C149.942 67.7735 150.642 68.4947 151.539 68.4947ZM158.687 67.0626V63.8481H159.728V69.3086H158.759V68.4432C158.471 69.0098 157.832 69.4116 157.09 69.4116C155.988 69.4116 155.226 68.7625 155.226 67.3614V63.8481H156.266V67.1553C156.266 68.1032 156.74 68.4947 157.42 68.4947C158.121 68.4947 158.687 67.9177 158.687 67.0626ZM162.212 66.5165V69.3086H161.172V63.8481H162.14V65.002C162.522 64.2499 163.346 63.776 164.242 63.776V64.8578C163.068 64.796 162.212 65.3111 162.212 66.5165ZM166.105 66.2281V69.3086H165.064V63.8481H166.033V64.7548C166.404 64.1469 167.022 63.7451 167.774 63.7451C168.897 63.7451 169.639 64.4663 169.639 65.7747V69.3086H168.598V66.125C168.598 65.1875 168.186 64.662 167.413 64.662C166.703 64.662 166.105 65.2596 166.105 66.2281ZM173.266 69.4116C171.689 69.4116 170.628 68.268 170.628 66.5475C170.628 64.9299 171.73 63.7451 173.235 63.7451C174.863 63.7451 175.944 65.0639 175.759 66.8359H171.689C171.772 67.9486 172.328 68.5977 173.245 68.5977C174.018 68.5977 174.553 68.1753 174.729 67.4644H175.759C175.491 68.6801 174.553 69.4116 173.266 69.4116ZM173.214 64.5281C172.38 64.5281 171.813 65.1257 171.7 66.1456H174.656C174.605 65.136 174.059 64.5281 173.214 64.5281ZM181.226 63.8481L178.496 71.297H177.363L178.146 69.2365L175.992 63.8481H177.115L178.702 68.0104L180.175 63.8481H181.226ZM189.329 66.5784C189.329 68.2268 188.381 69.4116 186.918 69.4116C186.177 69.4116 185.548 69.0407 185.157 68.3813V71.297H184.116V63.8481H185.084V64.8475C185.476 64.1469 186.146 63.7451 186.918 63.7451C188.371 63.7451 189.329 64.9299 189.329 66.5784ZM188.247 66.5784C188.247 65.3523 187.598 64.662 186.702 64.662C185.837 64.662 185.157 65.3523 185.157 66.5784C185.157 67.7838 185.826 68.4844 186.702 68.4844C187.598 68.4844 188.247 67.8044 188.247 66.5784ZM191.434 69.3086H190.383V61.9112H191.434V69.3086ZM196.184 69.3086V68.4638C195.844 69.0716 195.236 69.4116 194.433 69.4116C193.3 69.4116 192.558 68.7625 192.558 67.7632C192.558 66.6917 193.413 66.1353 195.041 66.1353C195.36 66.1353 195.618 66.1456 196.061 66.1972V65.7953C196.061 65.0123 195.638 64.5693 194.917 64.5693C194.155 64.5693 193.691 65.0226 193.66 65.785H192.712C192.764 64.559 193.64 63.7451 194.917 63.7451C196.267 63.7451 197.05 64.5075 197.05 65.8057V69.3086H196.184ZM193.547 67.7323C193.547 68.2989 193.969 68.6698 194.639 68.6698C195.515 68.6698 196.061 68.1238 196.061 67.2893V66.8462C195.659 66.7947 195.37 66.7844 195.103 66.7844C194.062 66.7844 193.547 67.0935 193.547 67.7323ZM199.48 66.2281V69.3086H198.44V63.8481H199.408V64.7548C199.779 64.1469 200.397 63.7451 201.15 63.7451C202.273 63.7451 203.014 64.4663 203.014 65.7747V69.3086H201.974V66.125C201.974 65.1875 201.562 64.662 200.789 64.662C200.078 64.662 199.48 65.2596 199.48 66.2281Z" fill="#1C1C1C"/>
</g>
</g>
<defs>
<filter id="filter0_f_1176_29587" x="-262.818" y="-364" width="798" height="798" filterUnits="userSpaceOnUse" color-interpolation-filters="sRGB">
<feFlood flood-opacity="0" result="BackgroundImageFix"/>
<feBlend mode="normal" in="SourceGraphic" in2="BackgroundImageFix" result="shape"/>
<feGaussianBlur stdDeviation="50" result="effect1_foregroundBlur_1176_29587"/>
</filter>
<filter id="filter1_ddd_1176_29587" x="89.372" y="101.605" width="157.862" height="125.831" filterUnits="userSpaceOnUse" color-interpolation-filters="sRGB">
<feFlood flood-opacity="0" result="BackgroundImageFix"/>
<feColorMatrix in="SourceAlpha" type="matrix" values="0 0 0 0 0 0 0 0 0 0 0 0 0 0 0 0 0 0 127 0" result="hardAlpha"/>
<feOffset dx="2.6426" dy="2.6426"/>
<feGaussianBlur stdDeviation="3.9639"/>
<feColorMatrix type="matrix" values="0 0 0 0 0 0 0 0 0 0 0 0 0 0 0 0 0 0 0.02 0"/>
<feBlend mode="normal" in2="BackgroundImageFix" result="effect1_dropShadow_1176_29587"/>
<feColorMatrix in="SourceAlpha" type="matrix" values="0 0 0 0 0 0 0 0 0 0 0 0 0 0 0 0 0 0 127 0" result="hardAlpha"/>
<feOffset dx="9.2491" dy="10.5704"/>
<feGaussianBlur stdDeviation="6.6065"/>
<feColorMatrix type="matrix" values="0 0 0 0 0 0 0 0 0 0 0 0 0 0 0 0 0 0 0.02 0"/>
<feBlend mode="normal" in2="effect1_dropShadow_1176_29587" result="effect2_dropShadow_1176_29587"/>
<feColorMatrix in="SourceAlpha" type="matrix" values="0 0 0 0 0 0 0 0 0 0 0 0 0 0 0 0 0 0 127 0" result="hardAlpha"/>
<feOffset dx="19.8195" dy="22.4621"/>
<feGaussianBlur stdDeviation="9.2491"/>
<feColorMatrix type="matrix" values="0 0 0 0 0 0 0 0 0 0 0 0 0 0 0 0 0 0 0.01 0"/>
<feBlend mode="normal" in2="effect2_dropShadow_1176_29587" result="effect3_dropShadow_1176_29587"/>
<feBlend mode="normal" in="SourceGraphic" in2="effect3_dropShadow_1176_29587" result="shape"/>
</filter>
<filter id="filter2_ddd_1176_29587" x="89.372" y="181.191" width="154.38" height="119.652" filterUnits="userSpaceOnUse" color-interpolation-filters="sRGB">
<feFlood flood-opacity="0" result="BackgroundImageFix"/>
<feColorMatrix in="SourceAlpha" type="matrix" values="0 0 0 0 0 0 0 0 0 0 0 0 0 0 0 0 0 0 127 0" result="hardAlpha"/>
<feOffset dx="2.6426" dy="2.6426"/>
<feGaussianBlur stdDeviation="3.9639"/>
<feColorMatrix type="matrix" values="0 0 0 0 0 0 0 0 0 0 0 0 0 0 0 0 0 0 0.02 0"/>
<feBlend mode="normal" in2="BackgroundImageFix" result="effect1_dropShadow_1176_29587"/>
<feColorMatrix in="SourceAlpha" type="matrix" values="0 0 0 0 0 0 0 0 0 0 0 0 0 0 0 0 0 0 127 0" result="hardAlpha"/>
<feOffset dx="9.2491" dy="10.5704"/>
<feGaussianBlur stdDeviation="6.6065"/>
<feColorMatrix type="matrix" values="0 0 0 0 0 0 0 0 0 0 0 0 0 0 0 0 0 0 0.02 0"/>
<feBlend mode="normal" in2="effect1_dropShadow_1176_29587" result="effect2_dropShadow_1176_29587"/>
<feColorMatrix in="SourceAlpha" type="matrix" values="0 0 0 0 0 0 0 0 0 0 0 0 0 0 0 0 0 0 127 0" result="hardAlpha"/>
<feOffset dx="19.8195" dy="22.4621"/>
<feGaussianBlur stdDeviation="9.2491"/>
<feColorMatrix type="matrix" values="0 0 0 0 0 0 0 0 0 0 0 0 0 0 0 0 0 0 0.01 0"/>
<feBlend mode="normal" in2="effect2_dropShadow_1176_29587" result="effect3_dropShadow_1176_29587"/>
<feBlend mode="normal" in="SourceGraphic" in2="effect3_dropShadow_1176_29587" result="shape"/>
</filter>
<filter id="filter3_ddd_1176_29587" x="89.372" y="254.598" width="158.341" height="126.722" filterUnits="userSpaceOnUse" color-interpolation-filters="sRGB">
<feFlood flood-opacity="0" result="BackgroundImageFix"/>
<feColorMatrix in="SourceAlpha" type="matrix" values="0 0 0 0 0 0 0 0 0 0 0 0 0 0 0 0 0 0 127 0" result="hardAlpha"/>
<feOffset dx="2.6426" dy="2.6426"/>
<feGaussianBlur stdDeviation="3.9639"/>
<feColorMatrix type="matrix" values="0 0 0 0 0 0 0 0 0 0 0 0 0 0 0 0 0 0 0.02 0"/>
<feBlend mode="normal" in2="BackgroundImageFix" result="effect1_dropShadow_1176_29587"/>
<feColorMatrix in="SourceAlpha" type="matrix" values="0 0 0 0 0 0 0 0 0 0 0 0 0 0 0 0 0 0 127 0" result="hardAlpha"/>
<feOffset dx="9.2491" dy="10.5704"/>
<feGaussianBlur stdDeviation="6.6065"/>
<feColorMatrix type="matrix" values="0 0 0 0 0 0 0 0 0 0 0 0 0 0 0 0 0 0 0.02 0"/>
<feBlend mode="normal" in2="effect1_dropShadow_1176_29587" result="effect2_dropShadow_1176_29587"/>
<feColorMatrix in="SourceAlpha" type="matrix" values="0 0 0 0 0 0 0 0 0 0 0 0 0 0 0 0 0 0 127 0" result="hardAlpha"/>
<feOffset dx="19.8195" dy="22.4621"/>
<feGaussianBlur stdDeviation="9.2491"/>
<feColorMatrix type="matrix" values="0 0 0 0 0 0 0 0 0 0 0 0 0 0 0 0 0 0 0.01 0"/>
<feBlend mode="normal" in2="effect2_dropShadow_1176_29587" result="effect3_dropShadow_1176_29587"/>
<feBlend mode="normal" in="SourceGraphic" in2="effect3_dropShadow_1176_29587" result="shape"/>
</filter>
<filter id="filter4_d_1176_29587" x="64.0706" y="46.3619" width="159.241" height="39.1812" filterUnits="userSpaceOnUse" color-interpolation-filters="sRGB">
<feFlood flood-opacity="0" result="BackgroundImageFix"/>
<feColorMatrix in="SourceAlpha" type="matrix" values="0 0 0 0 0 0 0 0 0 0 0 0 0 0 0 0 0 0 127 0" result="hardAlpha"/>
<feOffset dy="0.643923"/>
<feGaussianBlur stdDeviation="0.643923"/>
<feComposite in2="hardAlpha" operator="out"/>
<feColorMatrix type="matrix" values="0 0 0 0 0.0784314 0 0 0 0 0.109804 0 0 0 0 0.145098 0 0 0 0.04 0"/>
<feBlend mode="normal" in2="BackgroundImageFix" result="effect1_dropShadow_1176_29587"/>
<feBlend mode="normal" in="SourceGraphic" in2="effect1_dropShadow_1176_29587" result="shape"/>
</filter>
<linearGradient id="paint0_linear_1176_29587" x1="-45.3183" y1="109.054" x2="-956.471" y2="544.519" gradientUnits="userSpaceOnUse">
<stop stop-color="#005E8F"/>
<stop offset="0.956753" stop-color="#004172"/>
</linearGradient>
<clipPath id="clip0_1176_29587">
<rect width="294.273" height="367.68" rx="15.4542" fill="white"/>
</clipPath>
</defs>
</svg>
