<svg width="22" height="22" viewBox="0 0 22 22" fill="none" xmlns="http://www.w3.org/2000/svg">
<rect width="22" height="22" rx="11" fill="#1C1C1C"/>
<g clip-path="url(#clip0_1023_29779)">
<path fill-rule="evenodd" clip-rule="evenodd" d="M12.6796 12.6796C13.0077 12.3514 13.4529 12.167 13.917 12.167H16.5653C16.8875 12.167 17.1487 12.4282 17.1487 12.7503C17.1487 13.0725 16.8875 13.3337 16.5653 13.3337H13.917C13.7623 13.3337 13.6139 13.3951 13.5045 13.5045C13.3951 13.6139 13.3337 13.7623 13.3337 13.917V16.5653C13.3337 16.8875 13.0725 17.1487 12.7503 17.1487C12.4282 17.1487 12.167 16.8875 12.167 16.5653V13.917C12.167 13.4529 12.3514 13.0077 12.6796 12.6796Z" fill="#E4F28A"/>
<path fill-rule="evenodd" clip-rule="evenodd" d="M8.08333 5.36523C8.4055 5.36523 8.66667 5.6264 8.66667 5.94857V6.9169C8.66667 7.22632 8.78958 7.52307 9.00838 7.74186C9.22717 7.96065 9.52391 8.08357 9.83333 8.08357C10.2975 8.08357 10.7426 8.26794 11.0708 8.59613C11.399 8.92432 11.5833 9.36944 11.5833 9.83357C11.5833 10.1531 11.8472 10.4169 12.1667 10.4169C12.3214 10.4169 12.4697 10.3554 12.5791 10.246C12.6885 10.1366 12.75 9.98828 12.75 9.83357C12.75 8.86974 13.5362 8.08357 14.5 8.08357H16.3492C16.6713 8.08357 16.9325 8.34473 16.9325 8.6669C16.9325 8.98907 16.6713 9.25023 16.3492 9.25023H14.5C14.1805 9.25023 13.9167 9.51407 13.9167 9.83357C13.9167 10.2977 13.7323 10.7428 13.4041 11.071C13.0759 11.3992 12.6308 11.5836 12.1667 11.5836C11.2028 11.5836 10.4167 10.7974 10.4167 9.83357C10.4167 9.67886 10.3552 9.53049 10.2458 9.42109C10.1364 9.31169 9.98804 9.25023 9.83333 9.25023C9.21449 9.25023 8.621 9.0044 8.18342 8.56682C7.74583 8.12923 7.5 7.53574 7.5 6.9169V5.94857C7.5 5.6264 7.76117 5.36523 8.08333 5.36523Z" fill="#E4F28A"/>
<path fill-rule="evenodd" clip-rule="evenodd" d="M4.6123 10.4163C4.6123 10.0942 4.87347 9.83301 5.19564 9.83301H6.91647C7.3806 9.83301 7.82572 10.0174 8.15391 10.3456C8.4821 10.6738 8.66647 11.1189 8.66647 11.583V12.1663C8.66647 12.3211 8.72793 12.4694 8.83733 12.5788C8.94672 12.6882 9.0951 12.7497 9.2498 12.7497C9.71393 12.7497 10.1591 12.934 10.4872 13.2622C10.8154 13.5904 10.9998 14.0355 10.9998 14.4997V16.8038C10.9998 17.126 10.7386 17.3872 10.4165 17.3872C10.0943 17.3872 9.83314 17.126 9.83314 16.8038V14.4997C9.83314 14.345 9.77168 14.1966 9.66228 14.0872C9.55289 13.9778 9.40451 13.9163 9.2498 13.9163C8.78568 13.9163 8.34056 13.732 8.01237 13.4038C7.68418 13.0756 7.4998 12.6305 7.4998 12.1663V11.583C7.4998 11.4283 7.43835 11.2799 7.32895 11.1705C7.21955 11.0611 7.07118 10.9997 6.91647 10.9997H5.19564C4.87347 10.9997 4.6123 10.7385 4.6123 10.4163Z" fill="#E4F28A"/>
<path fill-rule="evenodd" clip-rule="evenodd" d="M10.9997 5.74967C8.10018 5.74967 5.74967 8.10018 5.74967 10.9997C5.74967 13.8992 8.10018 16.2497 10.9997 16.2497C13.8992 16.2497 16.2497 13.8992 16.2497 10.9997C16.2497 8.10018 13.8992 5.74967 10.9997 5.74967ZM4.58301 10.9997C4.58301 7.45585 7.45585 4.58301 10.9997 4.58301C14.5435 4.58301 17.4163 7.45585 17.4163 10.9997C17.4163 14.5435 14.5435 17.4163 10.9997 17.4163C7.45585 17.4163 4.58301 14.5435 4.58301 10.9997Z" fill="#E4F28A"/>
</g>
<defs>
<clipPath id="clip0_1023_29779">
<rect width="14" height="14" fill="white" transform="translate(4 4)"/>
</clipPath>
</defs>
</svg>
