<svg width="22" height="22" viewBox="0 0 22 22" fill="none" xmlns="http://www.w3.org/2000/svg">
<rect width="22" height="22" rx="11" fill="#1C1C1C"/>
<path fill-rule="evenodd" clip-rule="evenodd" d="M14.8757 5.19279C15.4201 5.02526 16.0299 4.98794 16.5112 5.22858C16.6241 5.28502 16.7156 5.37656 16.7721 5.48945C17.0127 5.97074 16.9754 6.58053 16.8079 7.125C16.6338 7.69085 16.2919 8.28373 15.7878 8.78781L13.9719 10.6037L14.9534 15.0753C14.9542 15.0788 14.955 15.0824 14.9557 15.0859C15.0663 15.639 14.8188 16.0844 14.442 16.367C14.401 16.3977 14.3562 16.4229 14.3086 16.4419L14.017 16.5586C13.532 16.7526 12.9396 16.6777 12.5753 16.192C12.5683 16.1827 12.5616 16.1732 12.5552 16.1634L10.8364 13.5607L9.83366 14.2292V15.667C9.83366 15.8217 9.7722 15.9701 9.66281 16.0795L9.07947 16.6628C8.9559 16.7864 8.78343 16.848 8.60952 16.8308C8.4356 16.8136 8.27857 16.7193 8.18163 16.5739L7.07968 14.921L5.42675 13.819C5.28134 13.7221 5.18705 13.5651 5.16983 13.3911C5.15261 13.2172 5.21427 13.0448 5.33785 12.9212L5.92118 12.3378C6.03058 12.2285 6.17895 12.167 6.33366 12.167H7.77147L8.43998 11.1642L5.83721 9.44543C5.8275 9.43902 5.81798 9.43231 5.80866 9.42533C5.32297 9.06106 5.24804 8.4687 5.44205 7.98368C5.4536 7.9548 5.46745 7.92688 5.48346 7.9002L5.64873 7.62476C5.89522 7.15628 6.39134 6.94031 6.91473 7.04499C6.91829 7.0457 6.92185 7.04645 6.9254 7.04723L11.3969 8.02878L13.2128 6.21285C13.7169 5.70877 14.3098 5.36689 14.8757 5.19279ZM15.2188 6.30786C14.8367 6.42542 14.4087 6.66688 14.0378 7.03781L11.9961 9.07947C11.8555 9.22012 11.6529 9.27941 11.4586 9.23676L6.68217 8.18828C6.67824 8.18756 6.6747 8.18701 6.67152 8.18661C6.66746 8.19409 6.66325 8.20148 6.65887 8.20878L6.51434 8.44967C6.50899 8.47005 6.50846 8.48368 6.50876 8.49081L9.57178 10.5136C9.70125 10.5991 9.79132 10.7326 9.82208 10.8847C9.85284 11.0367 9.82175 11.1948 9.73569 11.3239L8.56902 13.0739C8.46084 13.2362 8.2787 13.3337 8.08366 13.3337H6.80195L7.8239 14.015C7.88798 14.0577 7.94297 14.1127 7.98569 14.1768L8.667 15.1987V13.917C8.667 13.722 8.76447 13.5398 8.92675 13.4316L10.6768 12.265C10.8058 12.1789 10.9639 12.1478 11.116 12.1786C11.268 12.2093 11.4016 12.2994 11.4871 12.4289L13.5098 15.4919C13.5203 15.4923 13.5446 15.491 13.5837 15.4754L13.7879 15.3937C13.8058 15.375 13.8115 15.3632 13.8128 15.3603C13.8139 15.3578 13.8145 15.3556 13.8149 15.3517C13.8153 15.3477 13.8158 15.3372 13.8124 15.3185L12.7639 10.5421C12.7212 10.3478 12.7805 10.1452 12.9212 10.0045L14.9628 7.96285C15.3338 7.59192 15.5752 7.16397 15.6928 6.7819C15.7645 6.54883 15.7823 6.36189 15.7748 6.22589C15.6388 6.21832 15.4518 6.23615 15.2188 6.30786Z" fill="#E4F28A"/>
</svg>
