<svg width="22" height="22" viewBox="0 0 22 22" fill="none" xmlns="http://www.w3.org/2000/svg">
<rect width="22" height="22" rx="11" fill="#1C1C1C"/>
<path fill-rule="evenodd" clip-rule="evenodd" d="M10.555 5.29261C10.6898 5.21293 10.8436 5.1709 11.0002 5.1709C11.1568 5.1709 11.3105 5.21293 11.4453 5.29261C11.5802 5.37229 11.6911 5.48669 11.7667 5.62388C11.7684 5.62702 11.7701 5.63018 11.7718 5.63336L13.4904 8.89595L15.9774 6.76539C15.9812 6.76216 15.985 6.75898 15.9888 6.75585C16.1325 6.63898 16.3096 6.57073 16.4945 6.5609C16.6795 6.55107 16.8628 6.60018 17.018 6.70115C17.1733 6.80213 17.2925 6.94976 17.3585 7.1228C17.4245 7.29584 17.4339 7.48536 17.3853 7.6641C17.3851 7.66495 17.3849 7.6658 17.3846 7.66665L15.7316 13.6431C15.6641 13.8877 15.5187 14.1037 15.3174 14.2582C15.1161 14.4127 14.87 14.4974 14.6162 14.4995C14.6147 14.4995 14.6131 14.4995 14.6116 14.4995H7.38933C7.38798 14.4995 7.38662 14.4995 7.38526 14.4995C7.13132 14.4977 6.88489 14.4131 6.68338 14.2586C6.48197 14.1041 6.33643 13.8881 6.26885 13.6434C6.26884 13.6434 6.26882 13.6434 6.26881 13.6433C6.26879 13.6432 6.26878 13.6432 6.26876 13.6431L4.61627 7.6672C4.61603 7.66636 4.6158 7.66552 4.61558 7.66468C4.56701 7.48595 4.57641 7.29643 4.64242 7.12339C4.70843 6.95035 4.82765 6.80271 4.9829 6.70173C5.13816 6.60076 5.32145 6.55165 5.5064 6.56148C5.69134 6.57131 5.8684 6.63957 6.01208 6.75643C6.01594 6.75958 6.01977 6.76277 6.02356 6.76602L8.50993 8.89653L10.2285 5.63339C10.2302 5.63021 10.2319 5.62703 10.2337 5.62388C10.3092 5.48669 10.4202 5.37229 10.555 5.29261ZM11.0002 6.67186L12.4616 9.44609C12.4627 9.4482 12.4638 9.4503 12.4649 9.45239C12.5471 9.60378 12.6617 9.7351 12.8006 9.83694C12.9395 9.93878 13.0992 10.0086 13.2683 10.0414C13.4374 10.0742 13.6116 10.0691 13.7785 10.0266C13.9454 9.98406 14.1008 9.9051 14.2336 9.79539C14.2363 9.79319 14.2389 9.79097 14.2415 9.78873L16.0051 8.2779L14.6069 13.3328H7.3934L5.99579 8.27861L7.75877 9.78927C7.76141 9.79152 7.76406 9.79376 7.76674 9.79597C7.8995 9.90569 8.05492 9.98464 8.22181 10.0272C8.38871 10.0697 8.56296 10.0748 8.73204 10.042C8.90112 10.0092 9.06085 9.93936 9.19975 9.83753C9.33865 9.73569 9.45328 9.60436 9.53541 9.45297C9.53655 9.45087 9.53768 9.44876 9.53879 9.44664L11.0002 6.67186Z" fill="#E4F28A"/>
<path fill-rule="evenodd" clip-rule="evenodd" d="M6.33301 16.2503C6.33301 15.9282 6.59418 15.667 6.91634 15.667H15.083C15.4052 15.667 15.6663 15.9282 15.6663 16.2503C15.6663 16.5725 15.4052 16.8337 15.083 16.8337H6.91634C6.59418 16.8337 6.33301 16.5725 6.33301 16.2503Z" fill="#E4F28A"/>
</svg>
